<?xml version="1.0" encoding="utf-8" standalone="no"?>
<!DOCTYPE svg PUBLIC "-//W3C//DTD SVG 1.1//EN"
  "http://www.w3.org/Graphics/SVG/1.1/DTD/svg11.dtd">
<!-- Created with matplotlib (https://matplotlib.org/) -->
<svg height="1224pt" version="1.1" viewBox="0 0 1224 1224" width="1224pt" xmlns="http://www.w3.org/2000/svg" xmlns:xlink="http://www.w3.org/1999/xlink">
 <defs>
  <style type="text/css">
*{stroke-linecap:butt;stroke-linejoin:round;white-space:pre;}
  </style>
 </defs>
 <g id="figure_1">
  <g id="patch_1">
   <path d="M 0 1224 
L 1224 1224 
L 1224 0 
L 0 0 
z
" style="fill:#ffffff;"/>
  </g>
  <g id="axes_1">
   <g id="patch_2">
    <path d="M 996.948 608.94 
C 996.948 552.198867 983.883316 496.21228 958.769351 445.331586 
C 933.655387 394.450892 897.160075 350.02932 852.119877 315.519369 
L 627.3 608.94 
L 996.948 608.94 
z
" style="fill:#1f77b4;"/>
   </g>
   <g id="patch_3">
    <path d="M 852.119877 315.519369 
C 825.782503 295.339584 796.847625 278.797413 766.095844 266.339128 
C 735.344062 253.880842 703.054425 245.619492 670.098038 241.777949 
L 627.3 608.94 
L 852.119877 315.519369 
z
" style="fill:#ff7f0e;"/>
   </g>
   <g id="patch_4">
    <path d="M 670.098038 241.777949 
C 642.704879 238.584881 615.040215 238.467434 587.620933 241.427802 
C 560.20165 244.388171 533.199586 250.407802 507.119247 259.374226 
L 627.3 608.94 
L 670.098038 241.777949 
z
" style="fill:#2ca02c;"/>
   </g>
   <g id="patch_5">
    <path d="M 507.119247 259.374226 
C 483.354004 267.544719 460.483794 278.117478 438.863758 290.928323 
C 417.243721 303.739169 396.986349 318.721445 378.406207 335.6425 
L 627.3 608.94 
L 507.119247 259.374226 
z
" style="fill:#d62728;"/>
   </g>
   <g id="patch_6">
    <path d="M 378.406207 335.6425 
C 361.376759 351.151328 345.834079 368.21795 331.981065 386.619577 
C 318.128051 405.021203 306.025244 424.677412 295.830637 445.331609 
L 627.3 608.94 
L 378.406207 335.6425 
z
" style="fill:#9467bd;"/>
   </g>
   <g id="patch_7">
    <path d="M 295.830637 445.331609 
C 285.945385 465.359055 277.895536 486.241258 271.779915 507.721853 
C 265.664294 529.202448 261.508031 551.193172 259.36215 573.424051 
L 627.3 608.94 
L 295.830637 445.331609 
z
" style="fill:#8c564b;"/>
   </g>
   <g id="patch_8">
    <path d="M 259.36215 573.424051 
C 257.451245 593.220634 257.14116 613.139189 258.434916 632.98566 
C 259.728672 652.832132 262.622055 672.541859 267.086875 691.922819 
L 627.3 608.94 
L 259.36215 573.424051 
z
" style="fill:#e377c2;"/>
   </g>
   <g id="patch_9">
    <path d="M 267.086875 691.922819 
C 271.551695 711.303779 277.573405 730.292829 285.09334 748.704967 
C 292.613275 767.117104 301.606934 784.892343 311.986696 801.857506 
L 627.3 608.94 
L 267.086875 691.922819 
z
" style="fill:#7f7f7f;"/>
   </g>
   <g id="patch_10">
    <path d="M 311.986696 801.857506 
C 322.184166 818.524723 333.687126 834.357188 346.3874 849.20601 
C 359.087675 864.054831 372.945327 877.873316 387.830036 890.531513 
L 627.3 608.94 
L 311.986696 801.857506 
z
" style="fill:#bcbd22;"/>
   </g>
   <g id="patch_11">
    <path d="M 387.830036 890.531513 
C 401.118545 901.832276 415.19034 912.178236 429.939889 921.491804 
C 444.689437 930.805372 460.079774 939.063207 475.99548 946.203378 
L 627.3 608.94 
L 387.830036 890.531513 
z
" style="fill:#17becf;"/>
   </g>
   <g id="patch_12">
    <path d="M 475.99548 946.203378 
C 488.407704 951.771802 501.117871 956.650777 514.067955 960.81803 
C 527.018039 964.985282 540.188304 968.43446 553.518627 971.149819 
L 627.3 608.94 
L 475.99548 946.203378 
z
" style="fill:#1f77b4;"/>
   </g>
   <g id="patch_13">
    <path d="M 553.518627 971.149819 
C 566.506979 973.795519 579.628242 975.740688 592.825545 976.976895 
C 606.022849 978.213102 619.277098 978.738559 632.530846 978.550988 
L 627.3 608.94 
L 553.518627 971.149819 
z
" style="fill:#ff7f0e;"/>
   </g>
   <g id="patch_14">
    <path d="M 632.530846 978.550988 
C 644.388894 978.383169 656.231999 977.644794 668.019062 976.338424 
C 679.806126 975.032054 691.523496 973.159203 703.130511 970.72637 
L 627.3 608.94 
L 632.530846 978.550988 
z
" style="fill:#2ca02c;"/>
   </g>
   <g id="patch_15">
    <path d="M 703.130511 970.72637 
C 714.396016 968.365117 725.545087 965.478965 736.541275 962.07735 
C 747.537462 958.675734 758.368769 954.762366 768.999785 950.350039 
L 627.3 608.94 
L 703.130511 970.72637 
z
" style="fill:#d62728;"/>
   </g>
   <g id="patch_16">
    <path d="M 768.999785 950.350039 
C 778.341807 946.4727 787.520749 942.213555 796.513435 937.583359 
C 805.506121 932.953162 814.304975 927.955815 822.887779 922.603936 
L 627.3 608.94 
L 768.999785 950.350039 
z
" style="fill:#9467bd;"/>
   </g>
   <g id="patch_17">
    <path d="M 822.887779 922.603936 
C 830.582494 917.805832 838.098046 912.726205 845.419179 907.375366 
C 852.740311 902.024528 859.862067 896.406101 866.769991 890.53149 
L 627.3 608.94 
L 822.887779 922.603936 
z
" style="fill:#8c564b;"/>
   </g>
   <g id="patch_18">
    <path d="M 866.769991 890.53149 
C 873.146429 885.108863 879.336841 879.471216 885.330518 873.628299 
C 891.324196 867.785382 897.117681 861.740567 902.700954 855.504309 
L 627.3 608.94 
L 866.769991 890.53149 
z
" style="fill:#e377c2;"/>
   </g>
   <g id="patch_19">
    <path d="M 902.700954 855.504309 
C 908.051548 849.527942 913.206189 843.378992 918.156687 837.067226 
C 923.107186 830.755461 927.850919 824.284224 932.380351 817.663797 
L 627.3 608.94 
L 902.700954 855.504309 
z
" style="fill:#7f7f7f;"/>
   </g>
   <g id="patch_20">
    <path d="M 932.380351 817.663797 
C 936.909783 811.043369 941.222515 804.277258 945.311694 797.376213 
C 949.400874 790.475167 953.264335 783.442843 956.895939 776.290413 
L 627.3 608.94 
L 932.380351 817.663797 
z
" style="fill:#bcbd22;"/>
   </g>
   <g id="patch_21">
    <path d="M 956.895939 776.290413 
C 960.053789 770.071041 963.034969 763.763534 965.8359 757.375469 
C 968.63683 750.987403 971.256389 744.521338 973.691428 737.985041 
L 627.3 608.94 
L 956.895939 776.290413 
z
" style="fill:#17becf;"/>
   </g>
   <g id="patch_22">
    <path d="M 973.691428 737.985041 
C 975.639412 732.75613 977.468748 727.48378 979.17803 722.172045 
C 980.887311 716.860311 982.476099 711.510554 983.943173 706.126888 
L 627.3 608.94 
L 973.691428 737.985041 
z
" style="fill:#1f77b4;"/>
   </g>
   <g id="patch_23">
    <path d="M 983.943173 706.126888 
C 985.410246 700.743223 986.755229 695.327028 987.977086 689.882468 
C 989.198944 684.437909 990.297364 678.966381 991.2715 673.472091 
L 627.3 608.94 
L 983.943173 706.126888 
z
" style="fill:#ff7f0e;"/>
   </g>
   <g id="patch_24">
    <path d="M 991.2715 673.472091 
C 992.184749 668.321221 992.988553 663.151545 993.682369 657.966557 
C 994.376186 652.781568 994.959858 647.582436 995.432993 642.372673 
L 627.3 608.94 
L 991.2715 673.472091 
z
" style="fill:#2ca02c;"/>
   </g>
   <g id="patch_25">
    <path d="M 995.432993 642.372673 
C 995.653782 639.941522 995.850483 637.508243 996.023067 635.073195 
C 996.195651 632.638147 996.344108 630.201449 996.468419 627.76346 
L 627.3 608.94 
L 995.432993 642.372673 
z
" style="fill:#d62728;"/>
   </g>
   <g id="patch_26">
    <path d="M 996.468419 627.76346 
C 996.557211 626.022046 996.633681 624.280025 996.697822 622.537529 
C 996.761964 620.795033 996.813775 619.052105 996.853252 617.308876 
L 627.3 608.94 
L 996.468419 627.76346 
z
" style="fill:#9467bd;"/>
   </g>
   <g id="patch_27">
    <path d="M 996.853252 617.308876 
C 996.869042 616.611587 996.88286 615.914254 996.894703 615.216887 
C 996.906547 614.519519 996.916416 613.82212 996.924312 613.124696 
L 627.3 608.94 
L 996.853252 617.308876 
z
" style="fill:#8c564b;"/>
   </g>
   <g id="patch_28">
    <path d="M 996.924312 613.124696 
C 996.92826 612.775985 996.931715 612.427268 996.934676 612.078547 
C 996.937637 611.729826 996.940104 611.3811 996.942078 611.032372 
L 627.3 608.94 
L 996.924312 613.124696 
z
" style="fill:#e377c2;"/>
   </g>
   <g id="patch_29">
    <path d="M 996.942078 611.032372 
C 996.944052 610.683644 996.945533 610.334913 996.94652 609.98618 
C 996.947507 609.637448 996.948 609.288714 996.948 608.939981 
L 627.3 608.94 
L 996.942078 611.032372 
z
" style="fill:#7f7f7f;"/>
   </g>
   <g id="matplotlib.axis_1"/>
   <g id="matplotlib.axis_2">
    <g id="text_1">
     <!-- Quantidade -->
     <defs>
      <path d="M 39.40625 66.21875 
Q 28.65625 66.21875 22.328125 58.203125 
Q 16.015625 50.203125 16.015625 36.375 
Q 16.015625 22.609375 22.328125 14.59375 
Q 28.65625 6.59375 39.40625 6.59375 
Q 50.140625 6.59375 56.421875 14.59375 
Q 62.703125 22.609375 62.703125 36.375 
Q 62.703125 50.203125 56.421875 58.203125 
Q 50.140625 66.21875 39.40625 66.21875 
z
M 53.21875 1.3125 
L 66.21875 -12.890625 
L 54.296875 -12.890625 
L 43.5 -1.21875 
Q 41.890625 -1.3125 41.03125 -1.359375 
Q 40.1875 -1.421875 39.40625 -1.421875 
Q 24.03125 -1.421875 14.8125 8.859375 
Q 5.609375 19.140625 5.609375 36.375 
Q 5.609375 53.65625 14.8125 63.9375 
Q 24.03125 74.21875 39.40625 74.21875 
Q 54.734375 74.21875 63.90625 63.9375 
Q 73.09375 53.65625 73.09375 36.375 
Q 73.09375 23.6875 67.984375 14.640625 
Q 62.890625 5.609375 53.21875 1.3125 
z
" id="DejaVuSans-81"/>
      <path d="M 8.5 21.578125 
L 8.5 54.6875 
L 17.484375 54.6875 
L 17.484375 21.921875 
Q 17.484375 14.15625 20.5 10.265625 
Q 23.53125 6.390625 29.59375 6.390625 
Q 36.859375 6.390625 41.078125 11.03125 
Q 45.3125 15.671875 45.3125 23.6875 
L 45.3125 54.6875 
L 54.296875 54.6875 
L 54.296875 0 
L 45.3125 0 
L 45.3125 8.40625 
Q 42.046875 3.421875 37.71875 1 
Q 33.40625 -1.421875 27.6875 -1.421875 
Q 18.265625 -1.421875 13.375 4.4375 
Q 8.5 10.296875 8.5 21.578125 
z
M 31.109375 56 
z
" id="DejaVuSans-117"/>
      <path d="M 34.28125 27.484375 
Q 23.390625 27.484375 19.1875 25 
Q 14.984375 22.515625 14.984375 16.5 
Q 14.984375 11.71875 18.140625 8.90625 
Q 21.296875 6.109375 26.703125 6.109375 
Q 34.1875 6.109375 38.703125 11.40625 
Q 43.21875 16.703125 43.21875 25.484375 
L 43.21875 27.484375 
z
M 52.203125 31.203125 
L 52.203125 0 
L 43.21875 0 
L 43.21875 8.296875 
Q 40.140625 3.328125 35.546875 0.953125 
Q 30.953125 -1.421875 24.3125 -1.421875 
Q 15.921875 -1.421875 10.953125 3.296875 
Q 6 8.015625 6 15.921875 
Q 6 25.140625 12.171875 29.828125 
Q 18.359375 34.515625 30.609375 34.515625 
L 43.21875 34.515625 
L 43.21875 35.40625 
Q 43.21875 41.609375 39.140625 45 
Q 35.0625 48.390625 27.6875 48.390625 
Q 23 48.390625 18.546875 47.265625 
Q 14.109375 46.140625 10.015625 43.890625 
L 10.015625 52.203125 
Q 14.9375 54.109375 19.578125 55.046875 
Q 24.21875 56 28.609375 56 
Q 40.484375 56 46.34375 49.84375 
Q 52.203125 43.703125 52.203125 31.203125 
z
" id="DejaVuSans-97"/>
      <path d="M 54.890625 33.015625 
L 54.890625 0 
L 45.90625 0 
L 45.90625 32.71875 
Q 45.90625 40.484375 42.875 44.328125 
Q 39.84375 48.1875 33.796875 48.1875 
Q 26.515625 48.1875 22.3125 43.546875 
Q 18.109375 38.921875 18.109375 30.90625 
L 18.109375 0 
L 9.078125 0 
L 9.078125 54.6875 
L 18.109375 54.6875 
L 18.109375 46.1875 
Q 21.34375 51.125 25.703125 53.5625 
Q 30.078125 56 35.796875 56 
Q 45.21875 56 50.046875 50.171875 
Q 54.890625 44.34375 54.890625 33.015625 
z
" id="DejaVuSans-110"/>
      <path d="M 18.3125 70.21875 
L 18.3125 54.6875 
L 36.8125 54.6875 
L 36.8125 47.703125 
L 18.3125 47.703125 
L 18.3125 18.015625 
Q 18.3125 11.328125 20.140625 9.421875 
Q 21.96875 7.515625 27.59375 7.515625 
L 36.8125 7.515625 
L 36.8125 0 
L 27.59375 0 
Q 17.1875 0 13.234375 3.875 
Q 9.28125 7.765625 9.28125 18.015625 
L 9.28125 47.703125 
L 2.6875 47.703125 
L 2.6875 54.6875 
L 9.28125 54.6875 
L 9.28125 70.21875 
z
" id="DejaVuSans-116"/>
      <path d="M 9.421875 54.6875 
L 18.40625 54.6875 
L 18.40625 0 
L 9.421875 0 
z
M 9.421875 75.984375 
L 18.40625 75.984375 
L 18.40625 64.59375 
L 9.421875 64.59375 
z
" id="DejaVuSans-105"/>
      <path d="M 45.40625 46.390625 
L 45.40625 75.984375 
L 54.390625 75.984375 
L 54.390625 0 
L 45.40625 0 
L 45.40625 8.203125 
Q 42.578125 3.328125 38.25 0.953125 
Q 33.9375 -1.421875 27.875 -1.421875 
Q 17.96875 -1.421875 11.734375 6.484375 
Q 5.515625 14.40625 5.515625 27.296875 
Q 5.515625 40.1875 11.734375 48.09375 
Q 17.96875 56 27.875 56 
Q 33.9375 56 38.25 53.625 
Q 42.578125 51.265625 45.40625 46.390625 
z
M 14.796875 27.296875 
Q 14.796875 17.390625 18.875 11.75 
Q 22.953125 6.109375 30.078125 6.109375 
Q 37.203125 6.109375 41.296875 11.75 
Q 45.40625 17.390625 45.40625 27.296875 
Q 45.40625 37.203125 41.296875 42.84375 
Q 37.203125 48.484375 30.078125 48.484375 
Q 22.953125 48.484375 18.875 42.84375 
Q 14.796875 37.203125 14.796875 27.296875 
z
" id="DejaVuSans-100"/>
      <path d="M 56.203125 29.59375 
L 56.203125 25.203125 
L 14.890625 25.203125 
Q 15.484375 15.921875 20.484375 11.0625 
Q 25.484375 6.203125 34.421875 6.203125 
Q 39.59375 6.203125 44.453125 7.46875 
Q 49.3125 8.734375 54.109375 11.28125 
L 54.109375 2.78125 
Q 49.265625 0.734375 44.1875 -0.34375 
Q 39.109375 -1.421875 33.890625 -1.421875 
Q 20.796875 -1.421875 13.15625 6.1875 
Q 5.515625 13.8125 5.515625 26.8125 
Q 5.515625 40.234375 12.765625 48.109375 
Q 20.015625 56 32.328125 56 
Q 43.359375 56 49.78125 48.890625 
Q 56.203125 41.796875 56.203125 29.59375 
z
M 47.21875 32.234375 
Q 47.125 39.59375 43.09375 43.984375 
Q 39.0625 48.390625 32.421875 48.390625 
Q 24.90625 48.390625 20.390625 44.140625 
Q 15.875 39.890625 15.1875 32.171875 
z
" id="DejaVuSans-101"/>
     </defs>
     <g transform="translate(159.160313 638.115781)rotate(-90)scale(0.1 -0.1)">
      <use xlink:href="#DejaVuSans-81"/>
      <use x="78.710938" xlink:href="#DejaVuSans-117"/>
      <use x="142.089844" xlink:href="#DejaVuSans-97"/>
      <use x="203.369141" xlink:href="#DejaVuSans-110"/>
      <use x="266.748047" xlink:href="#DejaVuSans-116"/>
      <use x="305.957031" xlink:href="#DejaVuSans-105"/>
      <use x="333.740234" xlink:href="#DejaVuSans-100"/>
      <use x="397.216797" xlink:href="#DejaVuSans-97"/>
      <use x="458.496094" xlink:href="#DejaVuSans-100"/>
      <use x="521.972656" xlink:href="#DejaVuSans-101"/>
     </g>
    </g>
   </g>
   <g id="text_2">
    <!-- CPTL -->
    <defs>
     <path d="M 64.40625 67.28125 
L 64.40625 56.890625 
Q 59.421875 61.53125 53.78125 63.8125 
Q 48.140625 66.109375 41.796875 66.109375 
Q 29.296875 66.109375 22.65625 58.46875 
Q 16.015625 50.828125 16.015625 36.375 
Q 16.015625 21.96875 22.65625 14.328125 
Q 29.296875 6.6875 41.796875 6.6875 
Q 48.140625 6.6875 53.78125 8.984375 
Q 59.421875 11.28125 64.40625 15.921875 
L 64.40625 5.609375 
Q 59.234375 2.09375 53.4375 0.328125 
Q 47.65625 -1.421875 41.21875 -1.421875 
Q 24.65625 -1.421875 15.125 8.703125 
Q 5.609375 18.84375 5.609375 36.375 
Q 5.609375 53.953125 15.125 64.078125 
Q 24.65625 74.21875 41.21875 74.21875 
Q 47.75 74.21875 53.53125 72.484375 
Q 59.328125 70.75 64.40625 67.28125 
z
" id="DejaVuSans-67"/>
     <path d="M 19.671875 64.796875 
L 19.671875 37.40625 
L 32.078125 37.40625 
Q 38.96875 37.40625 42.71875 40.96875 
Q 46.484375 44.53125 46.484375 51.125 
Q 46.484375 57.671875 42.71875 61.234375 
Q 38.96875 64.796875 32.078125 64.796875 
z
M 9.8125 72.90625 
L 32.078125 72.90625 
Q 44.34375 72.90625 50.609375 67.359375 
Q 56.890625 61.8125 56.890625 51.125 
Q 56.890625 40.328125 50.609375 34.8125 
Q 44.34375 29.296875 32.078125 29.296875 
L 19.671875 29.296875 
L 19.671875 0 
L 9.8125 0 
z
" id="DejaVuSans-80"/>
     <path d="M -0.296875 72.90625 
L 61.375 72.90625 
L 61.375 64.59375 
L 35.5 64.59375 
L 35.5 0 
L 25.59375 0 
L 25.59375 64.59375 
L -0.296875 64.59375 
z
" id="DejaVuSans-84"/>
     <path d="M 9.8125 72.90625 
L 19.671875 72.90625 
L 19.671875 8.296875 
L 55.171875 8.296875 
L 55.171875 0 
L 9.8125 0 
z
" id="DejaVuSans-76"/>
    </defs>
    <g transform="translate(991.916286 431.73012)scale(0.1 -0.1)">
     <use xlink:href="#DejaVuSans-67"/>
     <use x="69.824219" xlink:href="#DejaVuSans-80"/>
     <use x="130.126953" xlink:href="#DejaVuSans-84"/>
     <use x="191.210938" xlink:href="#DejaVuSans-76"/>
    </g>
   </g>
   <g id="text_3">
    <!-- CPAN -->
    <defs>
     <path d="M 34.1875 63.1875 
L 20.796875 26.90625 
L 47.609375 26.90625 
z
M 28.609375 72.90625 
L 39.796875 72.90625 
L 67.578125 0 
L 57.328125 0 
L 50.6875 18.703125 
L 17.828125 18.703125 
L 11.1875 0 
L 0.78125 0 
z
" id="DejaVuSans-65"/>
     <path d="M 9.8125 72.90625 
L 23.09375 72.90625 
L 55.421875 11.921875 
L 55.421875 72.90625 
L 64.984375 72.90625 
L 64.984375 0 
L 51.703125 0 
L 19.390625 60.984375 
L 19.390625 0 
L 9.8125 0 
z
" id="DejaVuSans-78"/>
    </defs>
    <g transform="translate(779.975428 234.838416)scale(0.1 -0.1)">
     <use xlink:href="#DejaVuSans-67"/>
     <use x="69.824219" xlink:href="#DejaVuSans-80"/>
     <use x="130.033203" xlink:href="#DejaVuSans-65"/>
     <use x="198.441406" xlink:href="#DejaVuSans-78"/>
    </g>
   </g>
   <g id="text_4">
    <!-- FAENG -->
    <defs>
     <path d="M 9.8125 72.90625 
L 51.703125 72.90625 
L 51.703125 64.59375 
L 19.671875 64.59375 
L 19.671875 43.109375 
L 48.578125 43.109375 
L 48.578125 34.8125 
L 19.671875 34.8125 
L 19.671875 0 
L 9.8125 0 
z
" id="DejaVuSans-70"/>
     <path d="M 9.8125 72.90625 
L 55.90625 72.90625 
L 55.90625 64.59375 
L 19.671875 64.59375 
L 19.671875 43.015625 
L 54.390625 43.015625 
L 54.390625 34.71875 
L 19.671875 34.71875 
L 19.671875 8.296875 
L 56.78125 8.296875 
L 56.78125 0 
L 9.8125 0 
z
" id="DejaVuSans-69"/>
     <path d="M 59.515625 10.40625 
L 59.515625 29.984375 
L 43.40625 29.984375 
L 43.40625 38.09375 
L 69.28125 38.09375 
L 69.28125 6.78125 
Q 63.578125 2.734375 56.6875 0.65625 
Q 49.8125 -1.421875 42 -1.421875 
Q 24.90625 -1.421875 15.25 8.5625 
Q 5.609375 18.5625 5.609375 36.375 
Q 5.609375 54.25 15.25 64.234375 
Q 24.90625 74.21875 42 74.21875 
Q 49.125 74.21875 55.546875 72.453125 
Q 61.96875 70.703125 67.390625 67.28125 
L 67.390625 56.78125 
Q 61.921875 61.421875 55.765625 63.765625 
Q 49.609375 66.109375 42.828125 66.109375 
Q 29.4375 66.109375 22.71875 58.640625 
Q 16.015625 51.171875 16.015625 36.375 
Q 16.015625 21.625 22.71875 14.15625 
Q 29.4375 6.6875 42.828125 6.6875 
Q 48.046875 6.6875 52.140625 7.59375 
Q 56.25 8.5 59.515625 10.40625 
z
" id="DejaVuSans-71"/>
    </defs>
    <g transform="translate(549.526463 207.435957)scale(0.1 -0.1)">
     <use xlink:href="#DejaVuSans-70"/>
     <use x="57.378906" xlink:href="#DejaVuSans-65"/>
     <use x="125.787109" xlink:href="#DejaVuSans-69"/>
     <use x="188.970703" xlink:href="#DejaVuSans-78"/>
     <use x="263.775391" xlink:href="#DejaVuSans-71"/>
    </g>
   </g>
   <g id="text_5">
    <!-- FACFAN -->
    <g transform="translate(380.401383 261.886531)scale(0.1 -0.1)">
     <use xlink:href="#DejaVuSans-70"/>
     <use x="57.378906" xlink:href="#DejaVuSans-65"/>
     <use x="125.771484" xlink:href="#DejaVuSans-67"/>
     <use x="195.595703" xlink:href="#DejaVuSans-70"/>
     <use x="252.974609" xlink:href="#DejaVuSans-65"/>
     <use x="321.382812" xlink:href="#DejaVuSans-78"/>
    </g>
   </g>
   <g id="text_6">
    <!-- INISA -->
    <defs>
     <path d="M 9.8125 72.90625 
L 19.671875 72.90625 
L 19.671875 0 
L 9.8125 0 
z
" id="DejaVuSans-73"/>
     <path d="M 53.515625 70.515625 
L 53.515625 60.890625 
Q 47.90625 63.578125 42.921875 64.890625 
Q 37.9375 66.21875 33.296875 66.21875 
Q 25.25 66.21875 20.875 63.09375 
Q 16.5 59.96875 16.5 54.203125 
Q 16.5 49.359375 19.40625 46.890625 
Q 22.3125 44.4375 30.421875 42.921875 
L 36.375 41.703125 
Q 47.40625 39.59375 52.65625 34.296875 
Q 57.90625 29 57.90625 20.125 
Q 57.90625 9.515625 50.796875 4.046875 
Q 43.703125 -1.421875 29.984375 -1.421875 
Q 24.8125 -1.421875 18.96875 -0.25 
Q 13.140625 0.921875 6.890625 3.21875 
L 6.890625 13.375 
Q 12.890625 10.015625 18.65625 8.296875 
Q 24.421875 6.59375 29.984375 6.59375 
Q 38.421875 6.59375 43.015625 9.90625 
Q 47.609375 13.234375 47.609375 19.390625 
Q 47.609375 24.75 44.3125 27.78125 
Q 41.015625 30.8125 33.5 32.328125 
L 27.484375 33.5 
Q 16.453125 35.6875 11.515625 40.375 
Q 6.59375 45.0625 6.59375 53.421875 
Q 6.59375 63.09375 13.40625 68.65625 
Q 20.21875 74.21875 32.171875 74.21875 
Q 37.3125 74.21875 42.625 73.28125 
Q 47.953125 72.359375 53.515625 70.515625 
z
" id="DejaVuSans-83"/>
    </defs>
    <g transform="translate(275.877297 367.146909)scale(0.1 -0.1)">
     <use xlink:href="#DejaVuSans-73"/>
     <use x="29.492188" xlink:href="#DejaVuSans-78"/>
     <use x="104.296875" xlink:href="#DejaVuSans-73"/>
     <use x="133.789062" xlink:href="#DejaVuSans-83"/>
     <use x="197.28125" xlink:href="#DejaVuSans-65"/>
    </g>
   </g>
   <g id="text_7">
    <!-- FAALC -->
    <g transform="translate(204.251344 500.359413)scale(0.1 -0.1)">
     <use xlink:href="#DejaVuSans-70"/>
     <use x="57.378906" xlink:href="#DejaVuSans-65"/>
     <use x="125.818359" xlink:href="#DejaVuSans-65"/>
     <use x="194.226562" xlink:href="#DejaVuSans-76"/>
     <use x="249.939453" xlink:href="#DejaVuSans-67"/>
    </g>
   </g>
   <g id="text_8">
    <!-- FAMEZ -->
    <defs>
     <path d="M 9.8125 72.90625 
L 24.515625 72.90625 
L 43.109375 23.296875 
L 61.8125 72.90625 
L 76.515625 72.90625 
L 76.515625 0 
L 66.890625 0 
L 66.890625 64.015625 
L 48.09375 14.015625 
L 38.1875 14.015625 
L 19.390625 64.015625 
L 19.390625 0 
L 9.8125 0 
z
" id="DejaVuSans-77"/>
     <path d="M 5.609375 72.90625 
L 62.890625 72.90625 
L 62.890625 65.375 
L 16.796875 8.296875 
L 64.015625 8.296875 
L 64.015625 0 
L 4.5 0 
L 4.5 7.515625 
L 50.59375 64.59375 
L 5.609375 64.59375 
z
" id="DejaVuSans-90"/>
    </defs>
    <g transform="translate(187.173408 638.149601)scale(0.1 -0.1)">
     <use xlink:href="#DejaVuSans-70"/>
     <use x="57.378906" xlink:href="#DejaVuSans-65"/>
     <use x="125.787109" xlink:href="#DejaVuSans-77"/>
     <use x="212.066406" xlink:href="#DejaVuSans-69"/>
     <use x="275.25" xlink:href="#DejaVuSans-90"/>
    </g>
   </g>
   <g id="text_9">
    <!-- CPAQ -->
    <g transform="translate(223.158612 765.440838)scale(0.1 -0.1)">
     <use xlink:href="#DejaVuSans-67"/>
     <use x="69.824219" xlink:href="#DejaVuSans-80"/>
     <use x="130.033203" xlink:href="#DejaVuSans-65"/>
     <use x="198.425781" xlink:href="#DejaVuSans-81"/>
    </g>
   </g>
   <g id="text_10">
    <!-- INBIO -->
    <defs>
     <path d="M 19.671875 34.8125 
L 19.671875 8.109375 
L 35.5 8.109375 
Q 43.453125 8.109375 47.28125 11.40625 
Q 51.125 14.703125 51.125 21.484375 
Q 51.125 28.328125 47.28125 31.5625 
Q 43.453125 34.8125 35.5 34.8125 
z
M 19.671875 64.796875 
L 19.671875 42.828125 
L 34.28125 42.828125 
Q 41.5 42.828125 45.03125 45.53125 
Q 48.578125 48.25 48.578125 53.8125 
Q 48.578125 59.328125 45.03125 62.0625 
Q 41.5 64.796875 34.28125 64.796875 
z
M 9.8125 72.90625 
L 35.015625 72.90625 
Q 46.296875 72.90625 52.390625 68.21875 
Q 58.5 63.53125 58.5 54.890625 
Q 58.5 48.1875 55.375 44.234375 
Q 52.25 40.28125 46.1875 39.3125 
Q 53.46875 37.75 57.5 32.78125 
Q 61.53125 27.828125 61.53125 20.40625 
Q 61.53125 10.640625 54.890625 5.3125 
Q 48.25 0 35.984375 0 
L 9.8125 0 
z
" id="DejaVuSans-66"/>
     <path d="M 39.40625 66.21875 
Q 28.65625 66.21875 22.328125 58.203125 
Q 16.015625 50.203125 16.015625 36.375 
Q 16.015625 22.609375 22.328125 14.59375 
Q 28.65625 6.59375 39.40625 6.59375 
Q 50.140625 6.59375 56.421875 14.59375 
Q 62.703125 22.609375 62.703125 36.375 
Q 62.703125 50.203125 56.421875 58.203125 
Q 50.140625 66.21875 39.40625 66.21875 
z
M 39.40625 74.21875 
Q 54.734375 74.21875 63.90625 63.9375 
Q 73.09375 53.65625 73.09375 36.375 
Q 73.09375 19.140625 63.90625 8.859375 
Q 54.734375 -1.421875 39.40625 -1.421875 
Q 24.03125 -1.421875 14.8125 8.828125 
Q 5.609375 19.09375 5.609375 36.375 
Q 5.609375 53.65625 14.8125 63.9375 
Q 24.03125 74.21875 39.40625 74.21875 
z
" id="DejaVuSans-79"/>
    </defs>
    <g transform="translate(290.182078 875.991985)scale(0.1 -0.1)">
     <use xlink:href="#DejaVuSans-73"/>
     <use x="29.492188" xlink:href="#DejaVuSans-78"/>
     <use x="104.296875" xlink:href="#DejaVuSans-66"/>
     <use x="172.900391" xlink:href="#DejaVuSans-73"/>
     <use x="202.392578" xlink:href="#DejaVuSans-79"/>
    </g>
   </g>
   <g id="text_11">
    <!-- CPCS -->
    <g transform="translate(383.860127 955.50636)scale(0.1 -0.1)">
     <use xlink:href="#DejaVuSans-67"/>
     <use x="69.824219" xlink:href="#DejaVuSans-80"/>
     <use x="130.126953" xlink:href="#DejaVuSans-67"/>
     <use x="199.951172" xlink:href="#DejaVuSans-83"/>
    </g>
   </g>
   <g id="text_12">
    <!-- FAED -->
    <defs>
     <path d="M 19.671875 64.796875 
L 19.671875 8.109375 
L 31.59375 8.109375 
Q 46.6875 8.109375 53.6875 14.9375 
Q 60.6875 21.78125 60.6875 36.53125 
Q 60.6875 51.171875 53.6875 57.984375 
Q 46.6875 64.796875 31.59375 64.796875 
z
M 9.8125 72.90625 
L 30.078125 72.90625 
Q 51.265625 72.90625 61.171875 64.09375 
Q 71.09375 55.28125 71.09375 36.53125 
Q 71.09375 17.671875 61.125 8.828125 
Q 51.171875 0 30.078125 0 
L 9.8125 0 
z
" id="DejaVuSans-68"/>
    </defs>
    <g transform="translate(476.147875 998.765208)scale(0.1 -0.1)">
     <use xlink:href="#DejaVuSans-70"/>
     <use x="57.378906" xlink:href="#DejaVuSans-65"/>
     <use x="125.787109" xlink:href="#DejaVuSans-69"/>
     <use x="188.970703" xlink:href="#DejaVuSans-68"/>
    </g>
   </g>
   <g id="text_13">
    <!-- FACH -->
    <defs>
     <path d="M 9.8125 72.90625 
L 19.671875 72.90625 
L 19.671875 43.015625 
L 55.515625 43.015625 
L 55.515625 72.90625 
L 65.375 72.90625 
L 65.375 0 
L 55.515625 0 
L 55.515625 34.71875 
L 19.671875 34.71875 
L 19.671875 0 
L 9.8125 0 
z
" id="DejaVuSans-72"/>
    </defs>
    <g transform="translate(562.298413 1016.539959)scale(0.1 -0.1)">
     <use xlink:href="#DejaVuSans-70"/>
     <use x="57.378906" xlink:href="#DejaVuSans-65"/>
     <use x="125.771484" xlink:href="#DejaVuSans-67"/>
     <use x="195.595703" xlink:href="#DejaVuSans-72"/>
    </g>
   </g>
   <g id="text_14">
    <!-- INQUI -->
    <defs>
     <path d="M 8.6875 72.90625 
L 18.609375 72.90625 
L 18.609375 28.609375 
Q 18.609375 16.890625 22.84375 11.734375 
Q 27.09375 6.59375 36.625 6.59375 
Q 46.09375 6.59375 50.34375 11.734375 
Q 54.59375 16.890625 54.59375 28.609375 
L 54.59375 72.90625 
L 64.5 72.90625 
L 64.5 27.390625 
Q 64.5 13.140625 57.4375 5.859375 
Q 50.390625 -1.421875 36.625 -1.421875 
Q 22.796875 -1.421875 15.734375 5.859375 
Q 8.6875 13.140625 8.6875 27.390625 
z
" id="DejaVuSans-85"/>
    </defs>
    <g transform="translate(672.090969 1015.837641)scale(0.1 -0.1)">
     <use xlink:href="#DejaVuSans-73"/>
     <use x="29.492188" xlink:href="#DejaVuSans-78"/>
     <use x="104.296875" xlink:href="#DejaVuSans-81"/>
     <use x="183.007812" xlink:href="#DejaVuSans-85"/>
     <use x="256.201172" xlink:href="#DejaVuSans-73"/>
    </g>
   </g>
   <g id="text_15">
    <!-- FACOM -->
    <g transform="translate(747.465402 1000.15046)scale(0.1 -0.1)">
     <use xlink:href="#DejaVuSans-70"/>
     <use x="57.378906" xlink:href="#DejaVuSans-65"/>
     <use x="125.771484" xlink:href="#DejaVuSans-67"/>
     <use x="195.595703" xlink:href="#DejaVuSans-79"/>
     <use x="274.306641" xlink:href="#DejaVuSans-77"/>
    </g>
   </g>
   <g id="text_16">
    <!-- CPAR -->
    <defs>
     <path d="M 44.390625 34.1875 
Q 47.5625 33.109375 50.5625 29.59375 
Q 53.5625 26.078125 56.59375 19.921875 
L 66.609375 0 
L 56 0 
L 46.6875 18.703125 
Q 43.0625 26.03125 39.671875 28.421875 
Q 36.28125 30.8125 30.421875 30.8125 
L 19.671875 30.8125 
L 19.671875 0 
L 9.8125 0 
L 9.8125 72.90625 
L 32.078125 72.90625 
Q 44.578125 72.90625 50.734375 67.671875 
Q 56.890625 62.453125 56.890625 51.90625 
Q 56.890625 45.015625 53.6875 40.46875 
Q 50.484375 35.9375 44.390625 34.1875 
z
M 19.671875 64.796875 
L 19.671875 38.921875 
L 32.078125 38.921875 
Q 39.203125 38.921875 42.84375 42.21875 
Q 46.484375 45.515625 46.484375 51.90625 
Q 46.484375 58.296875 42.84375 61.546875 
Q 39.203125 64.796875 32.078125 64.796875 
z
" id="DejaVuSans-82"/>
    </defs>
    <g transform="translate(813.434779 973.20707)scale(0.1 -0.1)">
     <use xlink:href="#DejaVuSans-67"/>
     <use x="69.824219" xlink:href="#DejaVuSans-80"/>
     <use x="130.033203" xlink:href="#DejaVuSans-65"/>
     <use x="198.441406" xlink:href="#DejaVuSans-82"/>
    </g>
   </g>
   <g id="text_17">
    <!-- FAMED -->
    <g transform="translate(867.231096 939.978278)scale(0.1 -0.1)">
     <use xlink:href="#DejaVuSans-70"/>
     <use x="57.378906" xlink:href="#DejaVuSans-65"/>
     <use x="125.787109" xlink:href="#DejaVuSans-77"/>
     <use x="212.066406" xlink:href="#DejaVuSans-69"/>
     <use x="275.25" xlink:href="#DejaVuSans-68"/>
    </g>
   </g>
   <g id="text_18">
    <!-- CPCX -->
    <defs>
     <path d="M 6.296875 72.90625 
L 16.890625 72.90625 
L 35.015625 45.796875 
L 53.21875 72.90625 
L 63.8125 72.90625 
L 40.375 37.890625 
L 65.375 0 
L 54.78125 0 
L 34.28125 31 
L 13.625 0 
L 2.984375 0 
L 29 38.921875 
z
" id="DejaVuSans-88"/>
    </defs>
    <g transform="translate(911.13357 902.856504)scale(0.1 -0.1)">
     <use xlink:href="#DejaVuSans-67"/>
     <use x="69.824219" xlink:href="#DejaVuSans-80"/>
     <use x="130.126953" xlink:href="#DejaVuSans-67"/>
     <use x="199.951172" xlink:href="#DejaVuSans-88"/>
    </g>
   </g>
   <g id="text_19">
    <!-- CPPP -->
    <g transform="translate(947.242356 862.639324)scale(0.1 -0.1)">
     <use xlink:href="#DejaVuSans-67"/>
     <use x="69.824219" xlink:href="#DejaVuSans-80"/>
     <use x="130.126953" xlink:href="#DejaVuSans-80"/>
     <use x="190.429688" xlink:href="#DejaVuSans-80"/>
    </g>
   </g>
   <g id="text_20">
    <!-- FAODO -->
    <g transform="translate(977.112864 818.979209)scale(0.1 -0.1)">
     <use xlink:href="#DejaVuSans-70"/>
     <use x="57.378906" xlink:href="#DejaVuSans-65"/>
     <use x="125.771484" xlink:href="#DejaVuSans-79"/>
     <use x="204.482422" xlink:href="#DejaVuSans-68"/>
     <use x="281.484375" xlink:href="#DejaVuSans-79"/>
    </g>
   </g>
   <g id="text_21">
    <!-- FADIR -->
    <g transform="translate(999.68949 774.978391)scale(0.1 -0.1)">
     <use xlink:href="#DejaVuSans-70"/>
     <use x="57.378906" xlink:href="#DejaVuSans-65"/>
     <use x="125.787109" xlink:href="#DejaVuSans-68"/>
     <use x="202.789062" xlink:href="#DejaVuSans-73"/>
     <use x="232.28125" xlink:href="#DejaVuSans-82"/>
    </g>
   </g>
   <g id="text_22">
    <!-- ESAN -->
    <g transform="translate(1014.365833 736.254625)scale(0.1 -0.1)">
     <use xlink:href="#DejaVuSans-69"/>
     <use x="63.183594" xlink:href="#DejaVuSans-83"/>
     <use x="126.675781" xlink:href="#DejaVuSans-65"/>
     <use x="195.083984" xlink:href="#DejaVuSans-78"/>
    </g>
   </g>
   <g id="text_23">
    <!-- CPNV -->
    <defs>
     <path d="M 28.609375 0 
L 0.78125 72.90625 
L 11.078125 72.90625 
L 34.1875 11.53125 
L 57.328125 72.90625 
L 67.578125 72.90625 
L 39.796875 0 
z
" id="DejaVuSans-86"/>
    </defs>
    <g transform="translate(1024.044795 700.73609)scale(0.1 -0.1)">
     <use xlink:href="#DejaVuSans-67"/>
     <use x="69.824219" xlink:href="#DejaVuSans-80"/>
     <use x="130.126953" xlink:href="#DejaVuSans-78"/>
     <use x="204.931641" xlink:href="#DejaVuSans-86"/>
    </g>
   </g>
   <g id="text_24">
    <!-- INFI -->
    <g transform="translate(1030.320606 665.628587)scale(0.1 -0.1)">
     <use xlink:href="#DejaVuSans-73"/>
     <use x="29.492188" xlink:href="#DejaVuSans-78"/>
     <use x="104.296875" xlink:href="#DejaVuSans-70"/>
     <use x="161.816406" xlink:href="#DejaVuSans-73"/>
    </g>
   </g>
   <g id="text_25">
    <!-- INMA -->
    <g transform="translate(1032.895374 640.445889)scale(0.1 -0.1)">
     <use xlink:href="#DejaVuSans-73"/>
     <use x="29.492188" xlink:href="#DejaVuSans-78"/>
     <use x="104.296875" xlink:href="#DejaVuSans-77"/>
     <use x="190.576172" xlink:href="#DejaVuSans-65"/>
    </g>
   </g>
   <g id="text_26">
    <!-- CPNA -->
    <g transform="translate(1033.637605 626.656657)scale(0.1 -0.1)">
     <use xlink:href="#DejaVuSans-67"/>
     <use x="69.824219" xlink:href="#DejaVuSans-80"/>
     <use x="130.126953" xlink:href="#DejaVuSans-78"/>
     <use x="204.931641" xlink:href="#DejaVuSans-65"/>
    </g>
   </g>
   <g id="text_27">
    <!-- PROECE -->
    <g transform="translate(1033.854173 618.60395)scale(0.1 -0.1)">
     <use xlink:href="#DejaVuSans-80"/>
     <use x="60.302734" xlink:href="#DejaVuSans-82"/>
     <use x="129.785156" xlink:href="#DejaVuSans-79"/>
     <use x="208.496094" xlink:href="#DejaVuSans-69"/>
     <use x="271.679688" xlink:href="#DejaVuSans-67"/>
     <use x="341.503906" xlink:href="#DejaVuSans-69"/>
    </g>
   </g>
   <g id="text_28">
    <!-- FAAÇC -->
    <defs>
     <path d="M 64.40625 67.28125 
L 64.40625 56.890625 
Q 59.421875 61.53125 53.78125 63.8125 
Q 48.140625 66.109375 41.796875 66.109375 
Q 29.296875 66.109375 22.65625 58.46875 
Q 16.015625 50.828125 16.015625 36.375 
Q 16.015625 21.96875 22.65625 14.328125 
Q 29.296875 6.6875 41.796875 6.6875 
Q 48.140625 6.6875 53.78125 8.984375 
Q 59.421875 11.28125 64.40625 15.921875 
L 64.40625 5.609375 
Q 59.234375 2.09375 53.4375 0.328125 
Q 47.65625 -1.421875 41.21875 -1.421875 
Q 24.65625 -1.421875 15.125 8.703125 
Q 5.609375 18.84375 5.609375 36.375 
Q 5.609375 53.953125 15.125 64.078125 
Q 24.65625 74.21875 41.21875 74.21875 
Q 47.75 74.21875 53.53125 72.484375 
Q 59.328125 70.75 64.40625 67.28125 
z
M 43.859375 0 
Q 46.53125 -3.03125 47.84375 -5.59375 
Q 49.171875 -8.15625 49.171875 -10.5 
Q 49.171875 -14.84375 46.234375 -17.0625 
Q 43.3125 -19.28125 37.546875 -19.28125 
Q 35.3125 -19.28125 33.1875 -18.984375 
Q 31.0625 -18.703125 28.953125 -18.109375 
L 28.953125 -11.71875 
Q 30.625 -12.546875 32.421875 -12.90625 
Q 34.234375 -13.28125 36.53125 -13.28125 
Q 39.40625 -13.28125 40.875 -12.109375 
Q 42.34375 -10.9375 42.34375 -8.6875 
Q 42.34375 -7.234375 41.28125 -5.109375 
Q 40.234375 -2.984375 38.046875 0 
z
" id="DejaVuSans-199"/>
    </defs>
    <g transform="translate(1033.898143 615.151776)scale(0.1 -0.1)">
     <use xlink:href="#DejaVuSans-70"/>
     <use x="57.378906" xlink:href="#DejaVuSans-65"/>
     <use x="125.818359" xlink:href="#DejaVuSans-65"/>
     <use x="194.210938" xlink:href="#DejaVuSans-199"/>
     <use x="264.035156" xlink:href="#DejaVuSans-67"/>
    </g>
   </g>
   <g id="text_29">
    <!-- NHU -->
    <g transform="translate(1033.911171 612.850174)scale(0.1 -0.1)">
     <use xlink:href="#DejaVuSans-78"/>
     <use x="74.804688" xlink:href="#DejaVuSans-72"/>
     <use x="150" xlink:href="#DejaVuSans-85"/>
    </g>
   </g>
   <g id="legend_1">
    <g id="patch_30">
     <path d="M 1009.889688 565.8675 
L 1082.36 565.8675 
Q 1084.36 565.8675 1084.36 563.8675 
L 1084.36 153.88 
Q 1084.36 151.88 1082.36 151.88 
L 1009.889688 151.88 
Q 1007.889688 151.88 1007.889688 153.88 
L 1007.889688 563.8675 
Q 1007.889688 565.8675 1009.889688 565.8675 
z
" style="fill:#ffffff;opacity:0.8;stroke:#cccccc;stroke-linejoin:miter;"/>
    </g>
    <g id="patch_31">
     <path d="M 1011.889688 163.478437 
L 1031.889688 163.478437 
L 1031.889688 156.478437 
L 1011.889688 156.478437 
z
" style="fill:#1f77b4;"/>
    </g>
    <g id="text_30">
     <!-- CPTL -->
     <g transform="translate(1039.889688 163.478437)scale(0.1 -0.1)">
      <use xlink:href="#DejaVuSans-67"/>
      <use x="69.824219" xlink:href="#DejaVuSans-80"/>
      <use x="130.126953" xlink:href="#DejaVuSans-84"/>
      <use x="191.210938" xlink:href="#DejaVuSans-76"/>
     </g>
    </g>
    <g id="patch_32">
     <path d="M 1011.889688 178.156562 
L 1031.889688 178.156562 
L 1031.889688 171.156562 
L 1011.889688 171.156562 
z
" style="fill:#ff7f0e;"/>
    </g>
    <g id="text_31">
     <!-- CPAN -->
     <g transform="translate(1039.889688 178.156562)scale(0.1 -0.1)">
      <use xlink:href="#DejaVuSans-67"/>
      <use x="69.824219" xlink:href="#DejaVuSans-80"/>
      <use x="130.033203" xlink:href="#DejaVuSans-65"/>
      <use x="198.441406" xlink:href="#DejaVuSans-78"/>
     </g>
    </g>
    <g id="patch_33">
     <path d="M 1011.889688 192.834687 
L 1031.889688 192.834687 
L 1031.889688 185.834687 
L 1011.889688 185.834687 
z
" style="fill:#2ca02c;"/>
    </g>
    <g id="text_32">
     <!-- FAENG -->
     <g transform="translate(1039.889688 192.834687)scale(0.1 -0.1)">
      <use xlink:href="#DejaVuSans-70"/>
      <use x="57.378906" xlink:href="#DejaVuSans-65"/>
      <use x="125.787109" xlink:href="#DejaVuSans-69"/>
      <use x="188.970703" xlink:href="#DejaVuSans-78"/>
      <use x="263.775391" xlink:href="#DejaVuSans-71"/>
     </g>
    </g>
    <g id="patch_34">
     <path d="M 1011.889688 207.512812 
L 1031.889688 207.512812 
L 1031.889688 200.512812 
L 1011.889688 200.512812 
z
" style="fill:#d62728;"/>
    </g>
    <g id="text_33">
     <!-- FACFAN -->
     <g transform="translate(1039.889688 207.512812)scale(0.1 -0.1)">
      <use xlink:href="#DejaVuSans-70"/>
      <use x="57.378906" xlink:href="#DejaVuSans-65"/>
      <use x="125.771484" xlink:href="#DejaVuSans-67"/>
      <use x="195.595703" xlink:href="#DejaVuSans-70"/>
      <use x="252.974609" xlink:href="#DejaVuSans-65"/>
      <use x="321.382812" xlink:href="#DejaVuSans-78"/>
     </g>
    </g>
    <g id="patch_35">
     <path d="M 1011.889688 222.190938 
L 1031.889688 222.190938 
L 1031.889688 215.190938 
L 1011.889688 215.190938 
z
" style="fill:#9467bd;"/>
    </g>
    <g id="text_34">
     <!-- INISA -->
     <g transform="translate(1039.889688 222.190938)scale(0.1 -0.1)">
      <use xlink:href="#DejaVuSans-73"/>
      <use x="29.492188" xlink:href="#DejaVuSans-78"/>
      <use x="104.296875" xlink:href="#DejaVuSans-73"/>
      <use x="133.789062" xlink:href="#DejaVuSans-83"/>
      <use x="197.28125" xlink:href="#DejaVuSans-65"/>
     </g>
    </g>
    <g id="patch_36">
     <path d="M 1011.889688 236.869062 
L 1031.889688 236.869062 
L 1031.889688 229.869062 
L 1011.889688 229.869062 
z
" style="fill:#8c564b;"/>
    </g>
    <g id="text_35">
     <!-- FAALC -->
     <g transform="translate(1039.889688 236.869062)scale(0.1 -0.1)">
      <use xlink:href="#DejaVuSans-70"/>
      <use x="57.378906" xlink:href="#DejaVuSans-65"/>
      <use x="125.818359" xlink:href="#DejaVuSans-65"/>
      <use x="194.226562" xlink:href="#DejaVuSans-76"/>
      <use x="249.939453" xlink:href="#DejaVuSans-67"/>
     </g>
    </g>
    <g id="patch_37">
     <path d="M 1011.889688 251.547187 
L 1031.889688 251.547187 
L 1031.889688 244.547187 
L 1011.889688 244.547187 
z
" style="fill:#e377c2;"/>
    </g>
    <g id="text_36">
     <!-- FAMEZ -->
     <g transform="translate(1039.889688 251.547187)scale(0.1 -0.1)">
      <use xlink:href="#DejaVuSans-70"/>
      <use x="57.378906" xlink:href="#DejaVuSans-65"/>
      <use x="125.787109" xlink:href="#DejaVuSans-77"/>
      <use x="212.066406" xlink:href="#DejaVuSans-69"/>
      <use x="275.25" xlink:href="#DejaVuSans-90"/>
     </g>
    </g>
    <g id="patch_38">
     <path d="M 1011.889688 266.225312 
L 1031.889688 266.225312 
L 1031.889688 259.225312 
L 1011.889688 259.225312 
z
" style="fill:#7f7f7f;"/>
    </g>
    <g id="text_37">
     <!-- CPAQ -->
     <g transform="translate(1039.889688 266.225312)scale(0.1 -0.1)">
      <use xlink:href="#DejaVuSans-67"/>
      <use x="69.824219" xlink:href="#DejaVuSans-80"/>
      <use x="130.033203" xlink:href="#DejaVuSans-65"/>
      <use x="198.425781" xlink:href="#DejaVuSans-81"/>
     </g>
    </g>
    <g id="patch_39">
     <path d="M 1011.889688 280.903437 
L 1031.889688 280.903437 
L 1031.889688 273.903437 
L 1011.889688 273.903437 
z
" style="fill:#bcbd22;"/>
    </g>
    <g id="text_38">
     <!-- INBIO -->
     <g transform="translate(1039.889688 280.903437)scale(0.1 -0.1)">
      <use xlink:href="#DejaVuSans-73"/>
      <use x="29.492188" xlink:href="#DejaVuSans-78"/>
      <use x="104.296875" xlink:href="#DejaVuSans-66"/>
      <use x="172.900391" xlink:href="#DejaVuSans-73"/>
      <use x="202.392578" xlink:href="#DejaVuSans-79"/>
     </g>
    </g>
    <g id="patch_40">
     <path d="M 1011.889688 295.581562 
L 1031.889688 295.581562 
L 1031.889688 288.581562 
L 1011.889688 288.581562 
z
" style="fill:#17becf;"/>
    </g>
    <g id="text_39">
     <!-- CPCS -->
     <g transform="translate(1039.889688 295.581562)scale(0.1 -0.1)">
      <use xlink:href="#DejaVuSans-67"/>
      <use x="69.824219" xlink:href="#DejaVuSans-80"/>
      <use x="130.126953" xlink:href="#DejaVuSans-67"/>
      <use x="199.951172" xlink:href="#DejaVuSans-83"/>
     </g>
    </g>
    <g id="patch_41">
     <path d="M 1011.889688 310.259687 
L 1031.889688 310.259687 
L 1031.889688 303.259687 
L 1011.889688 303.259687 
z
" style="fill:#1f77b4;"/>
    </g>
    <g id="text_40">
     <!-- FAED -->
     <g transform="translate(1039.889688 310.259687)scale(0.1 -0.1)">
      <use xlink:href="#DejaVuSans-70"/>
      <use x="57.378906" xlink:href="#DejaVuSans-65"/>
      <use x="125.787109" xlink:href="#DejaVuSans-69"/>
      <use x="188.970703" xlink:href="#DejaVuSans-68"/>
     </g>
    </g>
    <g id="patch_42">
     <path d="M 1011.889688 324.937812 
L 1031.889688 324.937812 
L 1031.889688 317.937812 
L 1011.889688 317.937812 
z
" style="fill:#ff7f0e;"/>
    </g>
    <g id="text_41">
     <!-- FACH -->
     <g transform="translate(1039.889688 324.937812)scale(0.1 -0.1)">
      <use xlink:href="#DejaVuSans-70"/>
      <use x="57.378906" xlink:href="#DejaVuSans-65"/>
      <use x="125.771484" xlink:href="#DejaVuSans-67"/>
      <use x="195.595703" xlink:href="#DejaVuSans-72"/>
     </g>
    </g>
    <g id="patch_43">
     <path d="M 1011.889688 339.615937 
L 1031.889688 339.615937 
L 1031.889688 332.615937 
L 1011.889688 332.615937 
z
" style="fill:#2ca02c;"/>
    </g>
    <g id="text_42">
     <!-- INQUI -->
     <g transform="translate(1039.889688 339.615937)scale(0.1 -0.1)">
      <use xlink:href="#DejaVuSans-73"/>
      <use x="29.492188" xlink:href="#DejaVuSans-78"/>
      <use x="104.296875" xlink:href="#DejaVuSans-81"/>
      <use x="183.007812" xlink:href="#DejaVuSans-85"/>
      <use x="256.201172" xlink:href="#DejaVuSans-73"/>
     </g>
    </g>
    <g id="patch_44">
     <path d="M 1011.889688 354.294062 
L 1031.889688 354.294062 
L 1031.889688 347.294062 
L 1011.889688 347.294062 
z
" style="fill:#d62728;"/>
    </g>
    <g id="text_43">
     <!-- FACOM -->
     <g transform="translate(1039.889688 354.294062)scale(0.1 -0.1)">
      <use xlink:href="#DejaVuSans-70"/>
      <use x="57.378906" xlink:href="#DejaVuSans-65"/>
      <use x="125.771484" xlink:href="#DejaVuSans-67"/>
      <use x="195.595703" xlink:href="#DejaVuSans-79"/>
      <use x="274.306641" xlink:href="#DejaVuSans-77"/>
     </g>
    </g>
    <g id="patch_45">
     <path d="M 1011.889688 368.972187 
L 1031.889688 368.972187 
L 1031.889688 361.972187 
L 1011.889688 361.972187 
z
" style="fill:#9467bd;"/>
    </g>
    <g id="text_44">
     <!-- CPAR -->
     <g transform="translate(1039.889688 368.972187)scale(0.1 -0.1)">
      <use xlink:href="#DejaVuSans-67"/>
      <use x="69.824219" xlink:href="#DejaVuSans-80"/>
      <use x="130.033203" xlink:href="#DejaVuSans-65"/>
      <use x="198.441406" xlink:href="#DejaVuSans-82"/>
     </g>
    </g>
    <g id="patch_46">
     <path d="M 1011.889688 383.650312 
L 1031.889688 383.650312 
L 1031.889688 376.650312 
L 1011.889688 376.650312 
z
" style="fill:#8c564b;"/>
    </g>
    <g id="text_45">
     <!-- FAMED -->
     <g transform="translate(1039.889688 383.650312)scale(0.1 -0.1)">
      <use xlink:href="#DejaVuSans-70"/>
      <use x="57.378906" xlink:href="#DejaVuSans-65"/>
      <use x="125.787109" xlink:href="#DejaVuSans-77"/>
      <use x="212.066406" xlink:href="#DejaVuSans-69"/>
      <use x="275.25" xlink:href="#DejaVuSans-68"/>
     </g>
    </g>
    <g id="patch_47">
     <path d="M 1011.889688 398.328437 
L 1031.889688 398.328437 
L 1031.889688 391.328437 
L 1011.889688 391.328437 
z
" style="fill:#e377c2;"/>
    </g>
    <g id="text_46">
     <!-- CPCX -->
     <g transform="translate(1039.889688 398.328437)scale(0.1 -0.1)">
      <use xlink:href="#DejaVuSans-67"/>
      <use x="69.824219" xlink:href="#DejaVuSans-80"/>
      <use x="130.126953" xlink:href="#DejaVuSans-67"/>
      <use x="199.951172" xlink:href="#DejaVuSans-88"/>
     </g>
    </g>
    <g id="patch_48">
     <path d="M 1011.889688 413.006562 
L 1031.889688 413.006562 
L 1031.889688 406.006562 
L 1011.889688 406.006562 
z
" style="fill:#7f7f7f;"/>
    </g>
    <g id="text_47">
     <!-- CPPP -->
     <g transform="translate(1039.889688 413.006562)scale(0.1 -0.1)">
      <use xlink:href="#DejaVuSans-67"/>
      <use x="69.824219" xlink:href="#DejaVuSans-80"/>
      <use x="130.126953" xlink:href="#DejaVuSans-80"/>
      <use x="190.429688" xlink:href="#DejaVuSans-80"/>
     </g>
    </g>
    <g id="patch_49">
     <path d="M 1011.889688 427.684687 
L 1031.889688 427.684687 
L 1031.889688 420.684687 
L 1011.889688 420.684687 
z
" style="fill:#bcbd22;"/>
    </g>
    <g id="text_48">
     <!-- FAODO -->
     <g transform="translate(1039.889688 427.684687)scale(0.1 -0.1)">
      <use xlink:href="#DejaVuSans-70"/>
      <use x="57.378906" xlink:href="#DejaVuSans-65"/>
      <use x="125.771484" xlink:href="#DejaVuSans-79"/>
      <use x="204.482422" xlink:href="#DejaVuSans-68"/>
      <use x="281.484375" xlink:href="#DejaVuSans-79"/>
     </g>
    </g>
    <g id="patch_50">
     <path d="M 1011.889688 442.362812 
L 1031.889688 442.362812 
L 1031.889688 435.362812 
L 1011.889688 435.362812 
z
" style="fill:#17becf;"/>
    </g>
    <g id="text_49">
     <!-- FADIR -->
     <g transform="translate(1039.889688 442.362812)scale(0.1 -0.1)">
      <use xlink:href="#DejaVuSans-70"/>
      <use x="57.378906" xlink:href="#DejaVuSans-65"/>
      <use x="125.787109" xlink:href="#DejaVuSans-68"/>
      <use x="202.789062" xlink:href="#DejaVuSans-73"/>
      <use x="232.28125" xlink:href="#DejaVuSans-82"/>
     </g>
    </g>
    <g id="patch_51">
     <path d="M 1011.889688 457.040937 
L 1031.889688 457.040937 
L 1031.889688 450.040937 
L 1011.889688 450.040937 
z
" style="fill:#1f77b4;"/>
    </g>
    <g id="text_50">
     <!-- ESAN -->
     <g transform="translate(1039.889688 457.040937)scale(0.1 -0.1)">
      <use xlink:href="#DejaVuSans-69"/>
      <use x="63.183594" xlink:href="#DejaVuSans-83"/>
      <use x="126.675781" xlink:href="#DejaVuSans-65"/>
      <use x="195.083984" xlink:href="#DejaVuSans-78"/>
     </g>
    </g>
    <g id="patch_52">
     <path d="M 1011.889688 471.719062 
L 1031.889688 471.719062 
L 1031.889688 464.719062 
L 1011.889688 464.719062 
z
" style="fill:#ff7f0e;"/>
    </g>
    <g id="text_51">
     <!-- CPNV -->
     <g transform="translate(1039.889688 471.719062)scale(0.1 -0.1)">
      <use xlink:href="#DejaVuSans-67"/>
      <use x="69.824219" xlink:href="#DejaVuSans-80"/>
      <use x="130.126953" xlink:href="#DejaVuSans-78"/>
      <use x="204.931641" xlink:href="#DejaVuSans-86"/>
     </g>
    </g>
    <g id="patch_53">
     <path d="M 1011.889688 486.397187 
L 1031.889688 486.397187 
L 1031.889688 479.397187 
L 1011.889688 479.397187 
z
" style="fill:#2ca02c;"/>
    </g>
    <g id="text_52">
     <!-- INFI -->
     <g transform="translate(1039.889688 486.397187)scale(0.1 -0.1)">
      <use xlink:href="#DejaVuSans-73"/>
      <use x="29.492188" xlink:href="#DejaVuSans-78"/>
      <use x="104.296875" xlink:href="#DejaVuSans-70"/>
      <use x="161.816406" xlink:href="#DejaVuSans-73"/>
     </g>
    </g>
    <g id="patch_54">
     <path d="M 1011.889688 501.075312 
L 1031.889688 501.075312 
L 1031.889688 494.075312 
L 1011.889688 494.075312 
z
" style="fill:#d62728;"/>
    </g>
    <g id="text_53">
     <!-- INMA -->
     <g transform="translate(1039.889688 501.075312)scale(0.1 -0.1)">
      <use xlink:href="#DejaVuSans-73"/>
      <use x="29.492188" xlink:href="#DejaVuSans-78"/>
      <use x="104.296875" xlink:href="#DejaVuSans-77"/>
      <use x="190.576172" xlink:href="#DejaVuSans-65"/>
     </g>
    </g>
    <g id="patch_55">
     <path d="M 1011.889688 515.753438 
L 1031.889688 515.753438 
L 1031.889688 508.753438 
L 1011.889688 508.753438 
z
" style="fill:#9467bd;"/>
    </g>
    <g id="text_54">
     <!-- CPNA -->
     <g transform="translate(1039.889688 515.753438)scale(0.1 -0.1)">
      <use xlink:href="#DejaVuSans-67"/>
      <use x="69.824219" xlink:href="#DejaVuSans-80"/>
      <use x="130.126953" xlink:href="#DejaVuSans-78"/>
      <use x="204.931641" xlink:href="#DejaVuSans-65"/>
     </g>
    </g>
    <g id="patch_56">
     <path d="M 1011.889688 530.431563 
L 1031.889688 530.431563 
L 1031.889688 523.431563 
L 1011.889688 523.431563 
z
" style="fill:#8c564b;"/>
    </g>
    <g id="text_55">
     <!-- PROECE -->
     <g transform="translate(1039.889688 530.431563)scale(0.1 -0.1)">
      <use xlink:href="#DejaVuSans-80"/>
      <use x="60.302734" xlink:href="#DejaVuSans-82"/>
      <use x="129.785156" xlink:href="#DejaVuSans-79"/>
      <use x="208.496094" xlink:href="#DejaVuSans-69"/>
      <use x="271.679688" xlink:href="#DejaVuSans-67"/>
      <use x="341.503906" xlink:href="#DejaVuSans-69"/>
     </g>
    </g>
    <g id="patch_57">
     <path d="M 1011.889688 545.109688 
L 1031.889688 545.109688 
L 1031.889688 538.109688 
L 1011.889688 538.109688 
z
" style="fill:#e377c2;"/>
    </g>
    <g id="text_56">
     <!-- FAAÇC -->
     <g transform="translate(1039.889688 545.109688)scale(0.1 -0.1)">
      <use xlink:href="#DejaVuSans-70"/>
      <use x="57.378906" xlink:href="#DejaVuSans-65"/>
      <use x="125.818359" xlink:href="#DejaVuSans-65"/>
      <use x="194.210938" xlink:href="#DejaVuSans-199"/>
      <use x="264.035156" xlink:href="#DejaVuSans-67"/>
     </g>
    </g>
    <g id="patch_58">
     <path d="M 1011.889688 559.787813 
L 1031.889688 559.787813 
L 1031.889688 552.787813 
L 1011.889688 552.787813 
z
" style="fill:#7f7f7f;"/>
    </g>
    <g id="text_57">
     <!-- NHU -->
     <g transform="translate(1039.889688 559.787813)scale(0.1 -0.1)">
      <use xlink:href="#DejaVuSans-78"/>
      <use x="74.804688" xlink:href="#DejaVuSans-72"/>
      <use x="150" xlink:href="#DejaVuSans-85"/>
     </g>
    </g>
   </g>
  </g>
 </g>
</svg>
