<?xml version="1.0" encoding="utf-8" standalone="no"?>
<!DOCTYPE svg PUBLIC "-//W3C//DTD SVG 1.1//EN"
  "http://www.w3.org/Graphics/SVG/1.1/DTD/svg11.dtd">
<!-- Created with matplotlib (https://matplotlib.org/) -->
<svg height="1440pt" version="1.1" viewBox="0 0 1224 1440" width="1224pt" xmlns="http://www.w3.org/2000/svg" xmlns:xlink="http://www.w3.org/1999/xlink">
 <defs>
  <style type="text/css">
*{stroke-linecap:butt;stroke-linejoin:round;white-space:pre;}
  </style>
 </defs>
 <g id="figure_1">
  <g id="patch_1">
   <path d="M 0 1440 
L 1224 1440 
L 1224 0 
L 0 0 
z
" style="fill:#ffffff;"/>
  </g>
  <g id="axes_1">
   <g id="patch_2">
    <path d="M 999.1512 723.9888 
C 999.1512 665.74459 985.740432 608.274915 959.961196 556.046388 
C 934.181961 503.817862 896.719886 458.219559 850.48657 422.795437 
L 619.7112 723.9888 
L 999.1512 723.9888 
z
" style="fill:#00004c;opacity:0.5;stroke:#00004c;stroke-linejoin:miter;"/>
   </g>
   <g id="patch_3">
    <path d="M 850.48657 422.795437 
C 823.451518 402.081088 793.750153 385.100714 762.183755 372.312408 
C 730.617357 359.524102 697.472365 351.043907 663.642961 347.100602 
L 619.7112 723.9888 
L 850.48657 422.795437 
z
" style="fill:#002626;opacity:0.5;stroke:#002626;stroke-linejoin:miter;"/>
   </g>
   <g id="patch_4">
    <path d="M 663.642961 347.100602 
C 635.524155 343.822949 607.126653 343.702391 578.981032 346.74118 
C 550.83541 349.779969 523.11806 355.959061 496.346851 365.163005 
L 619.7112 723.9888 
L 663.642961 347.100602 
z
" style="fill:#2e4c2e;opacity:0.5;stroke:#2e4c2e;stroke-linejoin:miter;"/>
   </g>
   <g id="patch_5">
    <path d="M 496.346851 365.163005 
C 471.952065 373.549935 448.476022 384.402767 426.283269 397.552973 
C 404.090516 410.703179 383.296525 426.082336 364.224194 443.451631 
L 619.7112 723.9888 
L 496.346851 365.163005 
z
" style="fill:#4c3d2e;opacity:0.5;stroke:#4c3d2e;stroke-linejoin:miter;"/>
   </g>
   <g id="patch_6">
    <path d="M 364.224194 443.451631 
C 346.743634 459.371289 330.789229 476.890007 316.569247 495.779094 
C 302.349265 514.668181 289.925855 534.845084 279.461192 556.046412 
L 619.7112 723.9888 
L 364.224194 443.451631 
z
" style="fill:#193926;opacity:0.5;stroke:#193926;stroke-linejoin:miter;"/>
   </g>
   <g id="patch_7">
    <path d="M 279.461192 556.046412 
C 269.314079 576.604387 261.050989 598.03976 254.773365 620.089378 
C 248.495741 642.138995 244.229378 664.712255 242.026652 687.532031 
L 619.7112 723.9888 
L 279.461192 556.046412 
z
" style="fill:#4a4221;opacity:0.5;stroke:#4a4221;stroke-linejoin:miter;"/>
   </g>
   <g id="patch_8">
    <path d="M 242.026652 687.532031 
C 240.065127 707.853027 239.746828 728.299226 241.074856 748.671431 
C 242.402884 769.043637 245.372912 789.275476 249.956005 809.169839 
L 619.7112 723.9888 
L 242.026652 687.532031 
z
" style="fill:#201027;opacity:0.5;stroke:#201027;stroke-linejoin:miter;"/>
   </g>
   <g id="patch_9">
    <path d="M 249.956005 809.169839 
C 254.539098 829.064203 260.720325 848.556273 268.439463 867.45615 
C 276.158602 886.356026 285.390503 904.602132 296.045226 922.016704 
L 619.7112 723.9888 
L 249.956005 809.169839 
z
" style="fill:#420612;opacity:0.5;stroke:#420612;stroke-linejoin:miter;"/>
   </g>
   <g id="patch_10">
    <path d="M 296.045226 922.016704 
C 306.512827 939.125436 318.320501 955.377304 331.357207 970.619472 
C 344.393913 985.86164 358.618655 1000.046178 373.89766 1013.039691 
L 619.7112 723.9888 
L 296.045226 922.016704 
z
" style="fill:#003e3f;opacity:0.5;stroke:#003e3f;stroke-linejoin:miter;"/>
   </g>
   <g id="patch_11">
    <path d="M 373.89766 1013.039691 
C 387.538183 1024.639811 401.982741 1035.259837 417.123006 1044.820122 
C 432.263271 1054.380407 448.061299 1062.856992 464.398613 1070.186307 
L 619.7112 723.9888 
L 373.89766 1013.039691 
z
" style="fill:#160a1b;opacity:0.5;stroke:#160a1b;stroke-linejoin:miter;"/>
   </g>
   <g id="patch_12">
    <path d="M 464.398613 1070.186307 
C 477.139638 1075.90224 490.186498 1080.910459 503.47963 1085.188102 
C 516.772763 1089.465745 530.29191 1093.006292 543.975353 1095.793581 
L 619.7112 723.9888 
L 464.398613 1070.186307 
z
" style="fill:#492f05;opacity:0.5;stroke:#492f05;stroke-linejoin:miter;"/>
   </g>
   <g id="patch_13">
    <path d="M 543.975353 1095.793581 
C 557.307768 1098.509366 570.776614 1100.506062 584.323515 1101.775016 
C 597.870416 1103.043971 611.475771 1103.583347 625.080612 1103.390807 
L 619.7112 723.9888 
L 543.975353 1095.793581 
z
" style="fill:#002600;opacity:0.5;stroke:#002600;stroke-linejoin:miter;"/>
   </g>
   <g id="patch_14">
    <path d="M 625.080612 1103.390807 
C 637.25278 1103.218543 649.40961 1102.460608 661.508913 1101.119632 
C 673.608216 1099.778657 685.635981 1097.856194 697.550466 1095.358915 
L 619.7112 723.9888 
L 625.080612 1103.390807 
z
" style="fill:#4c1f36;opacity:0.5;stroke:#4c1f36;stroke-linejoin:miter;"/>
   </g>
   <g id="patch_15">
    <path d="M 697.550466 1095.358915 
C 709.114395 1092.935113 720.558806 1089.972506 731.846283 1086.480782 
C 743.133761 1082.989057 754.25199 1078.972023 765.164622 1074.442814 
L 619.7112 723.9888 
L 697.550466 1095.358915 
z
" style="fill:#260000;opacity:0.5;stroke:#260000;stroke-linejoin:miter;"/>
   </g>
   <g id="patch_16">
    <path d="M 765.164622 1074.442814 
C 774.754114 1070.462764 784.176208 1066.090794 793.407111 1061.337943 
C 802.638013 1056.585092 811.669949 1051.455365 820.480112 1045.961715 
L 619.7112 723.9888 
L 765.164622 1074.442814 
z
" style="fill:#4c4c00;opacity:0.5;stroke:#4c4c00;stroke-linejoin:miter;"/>
   </g>
   <g id="patch_17">
    <path d="M 820.480112 1045.961715 
C 828.378661 1041.036508 836.0933 1035.822321 843.60837 1030.329739 
C 851.12344 1024.837156 858.433852 1019.069897 865.524767 1013.039668 
L 619.7112 723.9888 
L 820.480112 1045.961715 
z
" style="fill:#004c00;opacity:0.5;stroke:#004c00;stroke-linejoin:miter;"/>
   </g>
   <g id="patch_18">
    <path d="M 865.524767 1013.039668 
C 872.070117 1007.473395 878.424513 1001.686406 884.576964 995.688709 
C 890.729414 989.691013 896.67637 983.486071 902.407544 977.084614 
L 619.7112 723.9888 
L 865.524767 1013.039668 
z
" style="fill:#4c004c;opacity:0.5;stroke:#4c004c;stroke-linejoin:miter;"/>
   </g>
   <g id="patch_19">
    <path d="M 902.407544 977.084614 
C 907.899875 970.949933 913.191063 964.638096 918.2727 958.159132 
C 923.354338 951.680167 928.223733 945.037507 932.87315 938.241704 
L 619.7112 723.9888 
L 902.407544 977.084614 
z
" style="fill:#00004c;opacity:0.5;stroke:#00004c;stroke-linejoin:miter;"/>
   </g>
   <g id="patch_20">
    <path d="M 932.87315 938.241704 
C 937.522567 931.445901 941.949543 924.500555 946.147045 917.4167 
C 950.344547 910.332846 954.310351 903.114235 958.038158 895.772336 
L 619.7112 723.9888 
L 932.87315 938.241704 
z
" style="fill:#4c2e2e;opacity:0.5;stroke:#4c2e2e;stroke-linejoin:miter;"/>
   </g>
   <g id="patch_21">
    <path d="M 958.038158 895.772336 
C 961.279659 889.388213 964.339811 882.91362 967.214938 876.356334 
C 970.090066 869.799048 972.779016 863.161697 975.27856 856.452253 
L 619.7112 723.9888 
L 958.038158 895.772336 
z
" style="fill:#4c0000;opacity:0.5;stroke:#4c0000;stroke-linejoin:miter;"/>
   </g>
   <g id="patch_22">
    <path d="M 975.27856 856.452253 
C 977.278146 851.084827 979.155942 845.672812 980.910502 840.22037 
C 982.665062 834.767927 984.295938 829.276455 985.801874 823.750176 
L 619.7112 723.9888 
L 975.27856 856.452253 
z
" style="fill:#260026;opacity:0.5;stroke:#260026;stroke-linejoin:miter;"/>
   </g>
   <g id="patch_23">
    <path d="M 985.801874 823.750176 
C 987.30781 818.223896 988.688422 812.664226 989.942646 807.07544 
C 991.196871 801.486654 992.324388 795.870184 993.32433 790.23035 
L 619.7112 723.9888 
L 985.801874 823.750176 
z
" style="fill:#3e1c1c;opacity:0.5;stroke:#3e1c1c;stroke-linejoin:miter;"/>
   </g>
   <g id="patch_24">
    <path d="M 993.32433 790.23035 
C 994.26177 784.943033 995.086867 779.636412 995.799063 774.314073 
C 996.511258 768.991734 997.110392 763.654877 997.59606 758.307107 
L 619.7112 723.9888 
L 993.32433 790.23035 
z
" style="fill:#452e1f;opacity:0.5;stroke:#452e1f;stroke-linejoin:miter;"/>
   </g>
   <g id="patch_25">
    <path d="M 997.59606 758.307107 
C 997.822698 755.811554 998.02461 753.313818 998.201765 750.814265 
C 998.378921 748.314712 998.531311 745.813466 998.658914 743.310894 
L 619.7112 723.9888 
L 997.59606 758.307107 
z
" style="fill:#091d2a;opacity:0.5;stroke:#091d2a;stroke-linejoin:miter;"/>
   </g>
   <g id="patch_26">
    <path d="M 998.658914 743.310894 
C 998.750059 741.52335 998.828555 739.735184 998.894395 737.946529 
C 998.960235 736.157874 999.013419 734.368776 999.053942 732.579368 
L 619.7112 723.9888 
L 998.658914 743.310894 
z
" style="fill:#210d00;opacity:0.5;stroke:#210d00;stroke-linejoin:miter;"/>
   </g>
   <g id="patch_27">
    <path d="M 999.053942 732.579368 
C 999.070151 731.863608 999.084334 731.147803 999.096491 730.431962 
C 999.108649 729.716121 999.11878 729.000247 999.126885 728.284349 
L 619.7112 723.9888 
L 999.053942 732.579368 
z
" style="fill:#070a0d;opacity:0.5;stroke:#070a0d;stroke-linejoin:miter;"/>
   </g>
   <g id="patch_28">
    <path d="M 999.126885 728.284349 
C 999.130937 727.9264 999.134483 727.568446 999.137523 727.210487 
C 999.140562 726.852528 999.143095 726.494565 999.145121 726.136599 
L 619.7112 723.9888 
L 999.126885 728.284349 
z
" style="fill:#283a46;opacity:0.5;stroke:#283a46;stroke-linejoin:miter;"/>
   </g>
   <g id="patch_29">
    <path d="M 999.145121 726.136599 
C 999.147147 725.778633 999.148667 725.420664 999.14968 725.062694 
C 999.150693 724.704723 999.1512 724.346752 999.1512 723.98878 
L 619.7112 723.9888 
L 999.145121 726.136599 
z
" style="fill:#482c29;opacity:0.5;stroke:#482c29;stroke-linejoin:miter;"/>
   </g>
   <g id="patch_30">
    <path d="M 1006.74 716.4 
C 1006.74 658.15579 993.329232 600.686115 967.549996 548.457588 
C 941.770761 496.229062 904.308686 450.630759 858.07537 415.206637 
L 627.3 716.4 
L 1006.74 716.4 
z
" style="fill:#0000ff;"/>
   </g>
   <g id="patch_31">
    <path d="M 858.07537 415.206637 
C 831.040318 394.492288 801.338953 377.511914 769.772555 364.723608 
C 738.206157 351.935302 705.061165 343.455107 671.231761 339.511802 
L 627.3 716.4 
L 858.07537 415.206637 
z
" style="fill:#008080;"/>
   </g>
   <g id="patch_32">
    <path d="M 671.231761 339.511802 
C 643.112955 336.234149 614.715453 336.113591 586.569832 339.15238 
C 558.42421 342.191169 530.70686 348.370261 503.935651 357.574205 
L 627.3 716.4 
L 671.231761 339.511802 
z
" style="fill:#99ff99;"/>
   </g>
   <g id="patch_33">
    <path d="M 503.935651 357.574205 
C 479.540865 365.961135 456.064822 376.813967 433.872069 389.964173 
C 411.679316 403.114379 390.885325 418.493536 371.812994 435.862831 
L 627.3 716.4 
L 503.935651 357.574205 
z
" style="fill:#ffcc99;"/>
   </g>
   <g id="patch_34">
    <path d="M 371.812994 435.862831 
C 354.332434 451.782489 338.378029 469.301207 324.158047 488.190294 
C 309.938065 507.079381 297.514655 527.256284 287.049992 548.457612 
L 627.3 716.4 
L 371.812994 435.862831 
z
" style="fill:#52be80;"/>
   </g>
   <g id="patch_35">
    <path d="M 287.049992 548.457612 
C 276.902879 569.015587 268.639789 590.45096 262.362165 612.500578 
C 256.084541 634.550195 251.818178 657.123455 249.615452 679.943231 
L 627.3 716.4 
L 287.049992 548.457612 
z
" style="fill:#f7dc6f;"/>
   </g>
   <g id="patch_36">
    <path d="M 249.615452 679.943231 
C 247.653927 700.264227 247.335628 720.710426 248.663656 741.082631 
C 249.991684 761.454837 252.961712 781.686676 257.544805 801.581039 
L 627.3 716.4 
L 249.615452 679.943231 
z
" style="fill:#6c3483;"/>
   </g>
   <g id="patch_37">
    <path d="M 257.544805 801.581039 
C 262.127898 821.475403 268.309125 840.967473 276.028263 859.86735 
C 283.747402 878.767226 292.979303 897.013332 303.634026 914.427904 
L 627.3 716.4 
L 257.544805 801.581039 
z
" style="fill:#dc143c;"/>
   </g>
   <g id="patch_38">
    <path d="M 303.634026 914.427904 
C 314.101627 931.536636 325.909301 947.788504 338.946007 963.030672 
C 351.982713 978.27284 366.207455 992.457378 381.48646 1005.450891 
L 627.3 716.4 
L 303.634026 914.427904 
z
" style="fill:#00ced1;"/>
   </g>
   <g id="patch_39">
    <path d="M 381.48646 1005.450891 
C 395.126983 1017.051011 409.571541 1027.671037 424.711806 1037.231322 
C 439.852071 1046.791607 455.650099 1055.268192 471.987413 1062.597507 
L 627.3 716.4 
L 381.48646 1005.450891 
z
" style="fill:#4a235a;"/>
   </g>
   <g id="patch_40">
    <path d="M 471.987413 1062.597507 
C 484.728438 1068.31344 497.775298 1073.321659 511.06843 1077.599302 
C 524.361563 1081.876945 537.88071 1085.417492 551.564153 1088.204781 
L 627.3 716.4 
L 471.987413 1062.597507 
z
" style="fill:#f39c12;"/>
   </g>
   <g id="patch_41">
    <path d="M 551.564153 1088.204781 
C 564.896568 1090.920566 578.365414 1092.917262 591.912315 1094.186216 
C 605.459216 1095.455171 619.064571 1095.994547 632.669412 1095.802007 
L 627.3 716.4 
L 551.564153 1088.204781 
z
" style="fill:#008000;"/>
   </g>
   <g id="patch_42">
    <path d="M 632.669412 1095.802007 
C 644.84158 1095.629743 656.99841 1094.871808 669.097713 1093.530832 
C 681.197016 1092.189857 693.224781 1090.267394 705.139266 1087.770115 
L 627.3 716.4 
L 632.669412 1095.802007 
z
" style="fill:#ff69b4;"/>
   </g>
   <g id="patch_43">
    <path d="M 705.139266 1087.770115 
C 716.703195 1085.346313 728.147606 1082.383706 739.435083 1078.891982 
C 750.722561 1075.400257 761.84079 1071.383223 772.753422 1066.854014 
L 627.3 716.4 
L 705.139266 1087.770115 
z
" style="fill:#800000;"/>
   </g>
   <g id="patch_44">
    <path d="M 772.753422 1066.854014 
C 782.342914 1062.873964 791.765008 1058.501994 800.995911 1053.749143 
C 810.226813 1048.996292 819.258749 1043.866565 828.068912 1038.372915 
L 627.3 716.4 
L 772.753422 1066.854014 
z
" style="fill:#ffff00;"/>
   </g>
   <g id="patch_45">
    <path d="M 828.068912 1038.372915 
C 835.967461 1033.447708 843.6821 1028.233521 851.19717 1022.740939 
C 858.71224 1017.248356 866.022652 1011.481097 873.113567 1005.450868 
L 627.3 716.4 
L 828.068912 1038.372915 
z
" style="fill:#00ff00;"/>
   </g>
   <g id="patch_46">
    <path d="M 873.113567 1005.450868 
C 879.658917 999.884595 886.013313 994.097606 892.165764 988.099909 
C 898.318214 982.102213 904.26517 975.897271 909.996344 969.495814 
L 627.3 716.4 
L 873.113567 1005.450868 
z
" style="fill:#ff00ff;"/>
   </g>
   <g id="patch_47">
    <path d="M 909.996344 969.495814 
C 915.488675 963.361133 920.779863 957.049296 925.8615 950.570332 
C 930.943138 944.091367 935.812533 937.448707 940.46195 930.652904 
L 627.3 716.4 
L 909.996344 969.495814 
z
" style="fill:#0000ff;"/>
   </g>
   <g id="patch_48">
    <path d="M 940.46195 930.652904 
C 945.111367 923.857101 949.538343 916.911755 953.735845 909.8279 
C 957.933347 902.744046 961.899151 895.525435 965.626958 888.183536 
L 627.3 716.4 
L 940.46195 930.652904 
z
" style="fill:#ff9999;"/>
   </g>
   <g id="patch_49">
    <path d="M 965.626958 888.183536 
C 968.868459 881.799413 971.928611 875.32482 974.803738 868.767534 
C 977.678866 862.210248 980.367816 855.572897 982.86736 848.863453 
L 627.3 716.4 
L 965.626958 888.183536 
z
" style="fill:#ff0000;"/>
   </g>
   <g id="patch_50">
    <path d="M 982.86736 848.863453 
C 984.866946 843.496027 986.744742 838.084012 988.499302 832.63157 
C 990.253862 827.179127 991.884738 821.687655 993.390674 816.161376 
L 627.3 716.4 
L 982.86736 848.863453 
z
" style="fill:#800080;"/>
   </g>
   <g id="patch_51">
    <path d="M 993.390674 816.161376 
C 994.89661 810.635096 996.277222 805.075426 997.531446 799.48664 
C 998.785671 793.897854 999.913188 788.281384 1000.91313 782.64155 
L 627.3 716.4 
L 993.390674 816.161376 
z
" style="fill:#cd5c5c;"/>
   </g>
   <g id="patch_52">
    <path d="M 1000.91313 782.64155 
C 1001.85057 777.354233 1002.675667 772.047612 1003.387863 766.725273 
C 1004.100058 761.402934 1004.699192 756.066077 1005.18486 750.718307 
L 627.3 716.4 
L 1000.91313 782.64155 
z
" style="fill:#e59866;"/>
   </g>
   <g id="patch_53">
    <path d="M 1005.18486 750.718307 
C 1005.411498 748.222754 1005.61341 745.725018 1005.790565 743.225465 
C 1005.967721 740.725912 1006.120111 738.224666 1006.247714 735.722094 
L 627.3 716.4 
L 1005.18486 750.718307 
z
" style="fill:#1f618d;"/>
   </g>
   <g id="patch_54">
    <path d="M 1006.247714 735.722094 
C 1006.338859 733.93455 1006.417355 732.146384 1006.483195 730.357729 
C 1006.549035 728.569074 1006.602219 726.779976 1006.642742 724.990568 
L 627.3 716.4 
L 1006.247714 735.722094 
z
" style="fill:#6e2c00;"/>
   </g>
   <g id="patch_55">
    <path d="M 1006.642742 724.990568 
C 1006.658951 724.274808 1006.673134 723.559003 1006.685291 722.843162 
C 1006.697449 722.127321 1006.70758 721.411447 1006.715685 720.695549 
L 627.3 716.4 
L 1006.642742 724.990568 
z
" style="fill:#17202a;"/>
   </g>
   <g id="patch_56">
    <path d="M 1006.715685 720.695549 
C 1006.719737 720.3376 1006.723283 719.979646 1006.726323 719.621687 
C 1006.729362 719.263728 1006.731895 718.905765 1006.733921 718.547799 
L 627.3 716.4 
L 1006.715685 720.695549 
z
" style="fill:#85c1e9;"/>
   </g>
   <g id="patch_57">
    <path d="M 1006.733921 718.547799 
C 1006.735947 718.189833 1006.737467 717.831864 1006.73848 717.473894 
C 1006.739493 717.115923 1006.74 716.757952 1006.74 716.39998 
L 627.3 716.4 
L 1006.733921 718.547799 
z
" style="fill:#f1948a;"/>
   </g>
   <g id="matplotlib.axis_1"/>
   <g id="matplotlib.axis_2">
    <g id="text_1">
     <!-- Quantidade -->
     <defs>
      <path d="M 39.40625 66.21875 
Q 28.65625 66.21875 22.328125 58.203125 
Q 16.015625 50.203125 16.015625 36.375 
Q 16.015625 22.609375 22.328125 14.59375 
Q 28.65625 6.59375 39.40625 6.59375 
Q 50.140625 6.59375 56.421875 14.59375 
Q 62.703125 22.609375 62.703125 36.375 
Q 62.703125 50.203125 56.421875 58.203125 
Q 50.140625 66.21875 39.40625 66.21875 
z
M 53.21875 1.3125 
L 66.21875 -12.890625 
L 54.296875 -12.890625 
L 43.5 -1.21875 
Q 41.890625 -1.3125 41.03125 -1.359375 
Q 40.1875 -1.421875 39.40625 -1.421875 
Q 24.03125 -1.421875 14.8125 8.859375 
Q 5.609375 19.140625 5.609375 36.375 
Q 5.609375 53.65625 14.8125 63.9375 
Q 24.03125 74.21875 39.40625 74.21875 
Q 54.734375 74.21875 63.90625 63.9375 
Q 73.09375 53.65625 73.09375 36.375 
Q 73.09375 23.6875 67.984375 14.640625 
Q 62.890625 5.609375 53.21875 1.3125 
z
" id="DejaVuSans-81"/>
      <path d="M 8.5 21.578125 
L 8.5 54.6875 
L 17.484375 54.6875 
L 17.484375 21.921875 
Q 17.484375 14.15625 20.5 10.265625 
Q 23.53125 6.390625 29.59375 6.390625 
Q 36.859375 6.390625 41.078125 11.03125 
Q 45.3125 15.671875 45.3125 23.6875 
L 45.3125 54.6875 
L 54.296875 54.6875 
L 54.296875 0 
L 45.3125 0 
L 45.3125 8.40625 
Q 42.046875 3.421875 37.71875 1 
Q 33.40625 -1.421875 27.6875 -1.421875 
Q 18.265625 -1.421875 13.375 4.4375 
Q 8.5 10.296875 8.5 21.578125 
z
M 31.109375 56 
z
" id="DejaVuSans-117"/>
      <path d="M 34.28125 27.484375 
Q 23.390625 27.484375 19.1875 25 
Q 14.984375 22.515625 14.984375 16.5 
Q 14.984375 11.71875 18.140625 8.90625 
Q 21.296875 6.109375 26.703125 6.109375 
Q 34.1875 6.109375 38.703125 11.40625 
Q 43.21875 16.703125 43.21875 25.484375 
L 43.21875 27.484375 
z
M 52.203125 31.203125 
L 52.203125 0 
L 43.21875 0 
L 43.21875 8.296875 
Q 40.140625 3.328125 35.546875 0.953125 
Q 30.953125 -1.421875 24.3125 -1.421875 
Q 15.921875 -1.421875 10.953125 3.296875 
Q 6 8.015625 6 15.921875 
Q 6 25.140625 12.171875 29.828125 
Q 18.359375 34.515625 30.609375 34.515625 
L 43.21875 34.515625 
L 43.21875 35.40625 
Q 43.21875 41.609375 39.140625 45 
Q 35.0625 48.390625 27.6875 48.390625 
Q 23 48.390625 18.546875 47.265625 
Q 14.109375 46.140625 10.015625 43.890625 
L 10.015625 52.203125 
Q 14.9375 54.109375 19.578125 55.046875 
Q 24.21875 56 28.609375 56 
Q 40.484375 56 46.34375 49.84375 
Q 52.203125 43.703125 52.203125 31.203125 
z
" id="DejaVuSans-97"/>
      <path d="M 54.890625 33.015625 
L 54.890625 0 
L 45.90625 0 
L 45.90625 32.71875 
Q 45.90625 40.484375 42.875 44.328125 
Q 39.84375 48.1875 33.796875 48.1875 
Q 26.515625 48.1875 22.3125 43.546875 
Q 18.109375 38.921875 18.109375 30.90625 
L 18.109375 0 
L 9.078125 0 
L 9.078125 54.6875 
L 18.109375 54.6875 
L 18.109375 46.1875 
Q 21.34375 51.125 25.703125 53.5625 
Q 30.078125 56 35.796875 56 
Q 45.21875 56 50.046875 50.171875 
Q 54.890625 44.34375 54.890625 33.015625 
z
" id="DejaVuSans-110"/>
      <path d="M 18.3125 70.21875 
L 18.3125 54.6875 
L 36.8125 54.6875 
L 36.8125 47.703125 
L 18.3125 47.703125 
L 18.3125 18.015625 
Q 18.3125 11.328125 20.140625 9.421875 
Q 21.96875 7.515625 27.59375 7.515625 
L 36.8125 7.515625 
L 36.8125 0 
L 27.59375 0 
Q 17.1875 0 13.234375 3.875 
Q 9.28125 7.765625 9.28125 18.015625 
L 9.28125 47.703125 
L 2.6875 47.703125 
L 2.6875 54.6875 
L 9.28125 54.6875 
L 9.28125 70.21875 
z
" id="DejaVuSans-116"/>
      <path d="M 9.421875 54.6875 
L 18.40625 54.6875 
L 18.40625 0 
L 9.421875 0 
z
M 9.421875 75.984375 
L 18.40625 75.984375 
L 18.40625 64.59375 
L 9.421875 64.59375 
z
" id="DejaVuSans-105"/>
      <path d="M 45.40625 46.390625 
L 45.40625 75.984375 
L 54.390625 75.984375 
L 54.390625 0 
L 45.40625 0 
L 45.40625 8.203125 
Q 42.578125 3.328125 38.25 0.953125 
Q 33.9375 -1.421875 27.875 -1.421875 
Q 17.96875 -1.421875 11.734375 6.484375 
Q 5.515625 14.40625 5.515625 27.296875 
Q 5.515625 40.1875 11.734375 48.09375 
Q 17.96875 56 27.875 56 
Q 33.9375 56 38.25 53.625 
Q 42.578125 51.265625 45.40625 46.390625 
z
M 14.796875 27.296875 
Q 14.796875 17.390625 18.875 11.75 
Q 22.953125 6.109375 30.078125 6.109375 
Q 37.203125 6.109375 41.296875 11.75 
Q 45.40625 17.390625 45.40625 27.296875 
Q 45.40625 37.203125 41.296875 42.84375 
Q 37.203125 48.484375 30.078125 48.484375 
Q 22.953125 48.484375 18.875 42.84375 
Q 14.796875 37.203125 14.796875 27.296875 
z
" id="DejaVuSans-100"/>
      <path d="M 56.203125 29.59375 
L 56.203125 25.203125 
L 14.890625 25.203125 
Q 15.484375 15.921875 20.484375 11.0625 
Q 25.484375 6.203125 34.421875 6.203125 
Q 39.59375 6.203125 44.453125 7.46875 
Q 49.3125 8.734375 54.109375 11.28125 
L 54.109375 2.78125 
Q 49.265625 0.734375 44.1875 -0.34375 
Q 39.109375 -1.421875 33.890625 -1.421875 
Q 20.796875 -1.421875 13.15625 6.1875 
Q 5.515625 13.8125 5.515625 26.8125 
Q 5.515625 40.234375 12.765625 48.109375 
Q 20.015625 56 32.328125 56 
Q 43.359375 56 49.78125 48.890625 
Q 56.203125 41.796875 56.203125 29.59375 
z
M 47.21875 32.234375 
Q 47.125 39.59375 43.09375 43.984375 
Q 39.0625 48.390625 32.421875 48.390625 
Q 24.90625 48.390625 20.390625 44.140625 
Q 15.875 39.890625 15.1875 32.171875 
z
" id="DejaVuSans-101"/>
     </defs>
     <g transform="translate(146.920312 745.575781)rotate(-90)scale(0.1 -0.1)">
      <use xlink:href="#DejaVuSans-81"/>
      <use x="78.710938" xlink:href="#DejaVuSans-117"/>
      <use x="142.089844" xlink:href="#DejaVuSans-97"/>
      <use x="203.369141" xlink:href="#DejaVuSans-110"/>
      <use x="266.748047" xlink:href="#DejaVuSans-116"/>
      <use x="305.957031" xlink:href="#DejaVuSans-105"/>
      <use x="333.740234" xlink:href="#DejaVuSans-100"/>
      <use x="397.216797" xlink:href="#DejaVuSans-97"/>
      <use x="458.496094" xlink:href="#DejaVuSans-100"/>
      <use x="521.972656" xlink:href="#DejaVuSans-101"/>
     </g>
    </g>
   </g>
   <g id="text_2">
    <!-- CPTL -->
    <defs>
     <path d="M 64.40625 67.28125 
L 64.40625 56.890625 
Q 59.421875 61.53125 53.78125 63.8125 
Q 48.140625 66.109375 41.796875 66.109375 
Q 29.296875 66.109375 22.65625 58.46875 
Q 16.015625 50.828125 16.015625 36.375 
Q 16.015625 21.96875 22.65625 14.328125 
Q 29.296875 6.6875 41.796875 6.6875 
Q 48.140625 6.6875 53.78125 8.984375 
Q 59.421875 11.28125 64.40625 15.921875 
L 64.40625 5.609375 
Q 59.234375 2.09375 53.4375 0.328125 
Q 47.65625 -1.421875 41.21875 -1.421875 
Q 24.65625 -1.421875 15.125 8.703125 
Q 5.609375 18.84375 5.609375 36.375 
Q 5.609375 53.953125 15.125 64.078125 
Q 24.65625 74.21875 41.21875 74.21875 
Q 47.75 74.21875 53.53125 72.484375 
Q 59.328125 70.75 64.40625 67.28125 
z
" id="DejaVuSans-67"/>
     <path d="M 19.671875 64.796875 
L 19.671875 37.40625 
L 32.078125 37.40625 
Q 38.96875 37.40625 42.71875 40.96875 
Q 46.484375 44.53125 46.484375 51.125 
Q 46.484375 57.671875 42.71875 61.234375 
Q 38.96875 64.796875 32.078125 64.796875 
z
M 9.8125 72.90625 
L 32.078125 72.90625 
Q 44.34375 72.90625 50.609375 67.359375 
Q 56.890625 61.8125 56.890625 51.125 
Q 56.890625 40.328125 50.609375 34.8125 
Q 44.34375 29.296875 32.078125 29.296875 
L 19.671875 29.296875 
L 19.671875 0 
L 9.8125 0 
z
" id="DejaVuSans-80"/>
     <path d="M -0.296875 72.90625 
L 61.375 72.90625 
L 61.375 64.59375 
L 35.5 64.59375 
L 35.5 0 
L 25.59375 0 
L 25.59375 64.59375 
L -0.296875 64.59375 
z
" id="DejaVuSans-84"/>
     <path d="M 9.8125 72.90625 
L 19.671875 72.90625 
L 19.671875 8.296875 
L 55.171875 8.296875 
L 55.171875 0 
L 9.8125 0 
z
" id="DejaVuSans-76"/>
    </defs>
    <g transform="translate(1001.574996 534.422722)scale(0.1 -0.1)">
     <use xlink:href="#DejaVuSans-67"/>
     <use x="69.824219" xlink:href="#DejaVuSans-80"/>
     <use x="130.126953" xlink:href="#DejaVuSans-84"/>
     <use x="191.210938" xlink:href="#DejaVuSans-76"/>
    </g>
   </g>
   <g id="text_3">
    <!-- 14.6% -->
    <defs>
     <path d="M 12.40625 8.296875 
L 28.515625 8.296875 
L 28.515625 63.921875 
L 10.984375 60.40625 
L 10.984375 69.390625 
L 28.421875 72.90625 
L 38.28125 72.90625 
L 38.28125 8.296875 
L 54.390625 8.296875 
L 54.390625 0 
L 12.40625 0 
z
" id="DejaVuSans-49"/>
     <path d="M 37.796875 64.3125 
L 12.890625 25.390625 
L 37.796875 25.390625 
z
M 35.203125 72.90625 
L 47.609375 72.90625 
L 47.609375 25.390625 
L 58.015625 25.390625 
L 58.015625 17.1875 
L 47.609375 17.1875 
L 47.609375 0 
L 37.796875 0 
L 37.796875 17.1875 
L 4.890625 17.1875 
L 4.890625 26.703125 
z
" id="DejaVuSans-52"/>
     <path d="M 10.6875 12.40625 
L 21 12.40625 
L 21 0 
L 10.6875 0 
z
" id="DejaVuSans-46"/>
     <path d="M 33.015625 40.375 
Q 26.375 40.375 22.484375 35.828125 
Q 18.609375 31.296875 18.609375 23.390625 
Q 18.609375 15.53125 22.484375 10.953125 
Q 26.375 6.390625 33.015625 6.390625 
Q 39.65625 6.390625 43.53125 10.953125 
Q 47.40625 15.53125 47.40625 23.390625 
Q 47.40625 31.296875 43.53125 35.828125 
Q 39.65625 40.375 33.015625 40.375 
z
M 52.59375 71.296875 
L 52.59375 62.3125 
Q 48.875 64.0625 45.09375 64.984375 
Q 41.3125 65.921875 37.59375 65.921875 
Q 27.828125 65.921875 22.671875 59.328125 
Q 17.53125 52.734375 16.796875 39.40625 
Q 19.671875 43.65625 24.015625 45.921875 
Q 28.375 48.1875 33.59375 48.1875 
Q 44.578125 48.1875 50.953125 41.515625 
Q 57.328125 34.859375 57.328125 23.390625 
Q 57.328125 12.15625 50.6875 5.359375 
Q 44.046875 -1.421875 33.015625 -1.421875 
Q 20.359375 -1.421875 13.671875 8.265625 
Q 6.984375 17.96875 6.984375 36.375 
Q 6.984375 53.65625 15.1875 63.9375 
Q 23.390625 74.21875 37.203125 74.21875 
Q 40.921875 74.21875 44.703125 73.484375 
Q 48.484375 72.75 52.59375 71.296875 
z
" id="DejaVuSans-54"/>
     <path d="M 72.703125 32.078125 
Q 68.453125 32.078125 66.03125 28.46875 
Q 63.625 24.859375 63.625 18.40625 
Q 63.625 12.0625 66.03125 8.421875 
Q 68.453125 4.78125 72.703125 4.78125 
Q 76.859375 4.78125 79.265625 8.421875 
Q 81.6875 12.0625 81.6875 18.40625 
Q 81.6875 24.8125 79.265625 28.4375 
Q 76.859375 32.078125 72.703125 32.078125 
z
M 72.703125 38.28125 
Q 80.421875 38.28125 84.953125 32.90625 
Q 89.5 27.546875 89.5 18.40625 
Q 89.5 9.28125 84.9375 3.921875 
Q 80.375 -1.421875 72.703125 -1.421875 
Q 64.890625 -1.421875 60.34375 3.921875 
Q 55.8125 9.28125 55.8125 18.40625 
Q 55.8125 27.59375 60.375 32.9375 
Q 64.9375 38.28125 72.703125 38.28125 
z
M 22.3125 68.015625 
Q 18.109375 68.015625 15.6875 64.375 
Q 13.28125 60.75 13.28125 54.390625 
Q 13.28125 47.953125 15.671875 44.328125 
Q 18.0625 40.71875 22.3125 40.71875 
Q 26.5625 40.71875 28.96875 44.328125 
Q 31.390625 47.953125 31.390625 54.390625 
Q 31.390625 60.6875 28.953125 64.34375 
Q 26.515625 68.015625 22.3125 68.015625 
z
M 66.40625 74.21875 
L 74.21875 74.21875 
L 28.609375 -1.421875 
L 20.796875 -1.421875 
z
M 22.3125 74.21875 
Q 30.03125 74.21875 34.609375 68.875 
Q 39.203125 63.53125 39.203125 54.390625 
Q 39.203125 45.171875 34.640625 39.84375 
Q 30.078125 34.515625 22.3125 34.515625 
Q 14.546875 34.515625 10.03125 39.859375 
Q 5.515625 45.21875 5.515625 54.390625 
Q 5.515625 63.484375 10.046875 68.84375 
Q 14.59375 74.21875 22.3125 74.21875 
z
" id="DejaVuSans-37"/>
    </defs>
    <g transform="translate(815.566404 618.393928)scale(0.1 -0.1)">
     <use xlink:href="#DejaVuSans-49"/>
     <use x="63.623047" xlink:href="#DejaVuSans-52"/>
     <use x="127.246094" xlink:href="#DejaVuSans-46"/>
     <use x="159.033203" xlink:href="#DejaVuSans-54"/>
     <use x="222.65625" xlink:href="#DejaVuSans-37"/>
    </g>
   </g>
   <g id="text_4">
    <!-- CPAN -->
    <defs>
     <path d="M 34.1875 63.1875 
L 20.796875 26.90625 
L 47.609375 26.90625 
z
M 28.609375 72.90625 
L 39.796875 72.90625 
L 67.578125 0 
L 57.328125 0 
L 50.6875 18.703125 
L 17.828125 18.703125 
L 11.1875 0 
L 0.78125 0 
z
" id="DejaVuSans-65"/>
     <path d="M 9.8125 72.90625 
L 23.09375 72.90625 
L 55.421875 11.921875 
L 55.421875 72.90625 
L 64.984375 72.90625 
L 64.984375 0 
L 51.703125 0 
L 19.390625 60.984375 
L 19.390625 0 
L 9.8125 0 
z
" id="DejaVuSans-78"/>
    </defs>
    <g transform="translate(784.01981 332.315344)scale(0.1 -0.1)">
     <use xlink:href="#DejaVuSans-67"/>
     <use x="69.824219" xlink:href="#DejaVuSans-80"/>
     <use x="130.033203" xlink:href="#DejaVuSans-65"/>
     <use x="198.441406" xlink:href="#DejaVuSans-78"/>
    </g>
   </g>
   <g id="text_5">
    <!-- 8.6% -->
    <defs>
     <path d="M 31.78125 34.625 
Q 24.75 34.625 20.71875 30.859375 
Q 16.703125 27.09375 16.703125 20.515625 
Q 16.703125 13.921875 20.71875 10.15625 
Q 24.75 6.390625 31.78125 6.390625 
Q 38.8125 6.390625 42.859375 10.171875 
Q 46.921875 13.96875 46.921875 20.515625 
Q 46.921875 27.09375 42.890625 30.859375 
Q 38.875 34.625 31.78125 34.625 
z
M 21.921875 38.8125 
Q 15.578125 40.375 12.03125 44.71875 
Q 8.5 49.078125 8.5 55.328125 
Q 8.5 64.0625 14.71875 69.140625 
Q 20.953125 74.21875 31.78125 74.21875 
Q 42.671875 74.21875 48.875 69.140625 
Q 55.078125 64.0625 55.078125 55.328125 
Q 55.078125 49.078125 51.53125 44.71875 
Q 48 40.375 41.703125 38.8125 
Q 48.828125 37.15625 52.796875 32.3125 
Q 56.78125 27.484375 56.78125 20.515625 
Q 56.78125 9.90625 50.3125 4.234375 
Q 43.84375 -1.421875 31.78125 -1.421875 
Q 19.734375 -1.421875 13.25 4.234375 
Q 6.78125 9.90625 6.78125 20.515625 
Q 6.78125 27.484375 10.78125 32.3125 
Q 14.796875 37.15625 21.921875 38.8125 
z
M 18.3125 54.390625 
Q 18.3125 48.734375 21.84375 45.5625 
Q 25.390625 42.390625 31.78125 42.390625 
Q 38.140625 42.390625 41.71875 45.5625 
Q 45.3125 48.734375 45.3125 54.390625 
Q 45.3125 60.0625 41.71875 63.234375 
Q 38.140625 66.40625 31.78125 66.40625 
Q 25.390625 66.40625 21.84375 63.234375 
Q 18.3125 60.0625 18.3125 54.390625 
z
" id="DejaVuSans-56"/>
    </defs>
    <g transform="translate(700.081189 508.15354)scale(0.1 -0.1)">
     <use xlink:href="#DejaVuSans-56"/>
     <use x="63.623047" xlink:href="#DejaVuSans-46"/>
     <use x="95.410156" xlink:href="#DejaVuSans-54"/>
     <use x="159.033203" xlink:href="#DejaVuSans-37"/>
    </g>
   </g>
   <g id="text_6">
    <!-- FAENG -->
    <defs>
     <path d="M 9.8125 72.90625 
L 51.703125 72.90625 
L 51.703125 64.59375 
L 19.671875 64.59375 
L 19.671875 43.109375 
L 48.578125 43.109375 
L 48.578125 34.8125 
L 19.671875 34.8125 
L 19.671875 0 
L 9.8125 0 
z
" id="DejaVuSans-70"/>
     <path d="M 9.8125 72.90625 
L 55.90625 72.90625 
L 55.90625 64.59375 
L 19.671875 64.59375 
L 19.671875 43.015625 
L 54.390625 43.015625 
L 54.390625 34.71875 
L 19.671875 34.71875 
L 19.671875 8.296875 
L 56.78125 8.296875 
L 56.78125 0 
L 9.8125 0 
z
" id="DejaVuSans-69"/>
     <path d="M 59.515625 10.40625 
L 59.515625 29.984375 
L 43.40625 29.984375 
L 43.40625 38.09375 
L 69.28125 38.09375 
L 69.28125 6.78125 
Q 63.578125 2.734375 56.6875 0.65625 
Q 49.8125 -1.421875 42 -1.421875 
Q 24.90625 -1.421875 15.25 8.5625 
Q 5.609375 18.5625 5.609375 36.375 
Q 5.609375 54.25 15.25 64.234375 
Q 24.90625 74.21875 42 74.21875 
Q 49.125 74.21875 55.546875 72.453125 
Q 61.96875 70.703125 67.390625 67.28125 
L 67.390625 56.78125 
Q 61.921875 61.421875 55.765625 63.765625 
Q 49.609375 66.109375 42.828125 66.109375 
Q 29.4375 66.109375 22.71875 58.640625 
Q 16.015625 51.171875 16.015625 36.375 
Q 16.015625 21.625 22.71875 14.15625 
Q 29.4375 6.6875 42.828125 6.6875 
Q 48.046875 6.6875 52.140625 7.59375 
Q 56.25 8.5 59.515625 10.40625 
z
" id="DejaVuSans-71"/>
    </defs>
    <g transform="translate(548.370252 304.186993)scale(0.1 -0.1)">
     <use xlink:href="#DejaVuSans-70"/>
     <use x="57.378906" xlink:href="#DejaVuSans-65"/>
     <use x="125.787109" xlink:href="#DejaVuSans-69"/>
     <use x="188.970703" xlink:href="#DejaVuSans-78"/>
     <use x="263.775391" xlink:href="#DejaVuSans-71"/>
    </g>
   </g>
   <g id="text_7">
    <!-- 7.1% -->
    <defs>
     <path d="M 8.203125 72.90625 
L 55.078125 72.90625 
L 55.078125 68.703125 
L 28.609375 0 
L 18.3125 0 
L 43.21875 64.59375 
L 8.203125 64.59375 
z
" id="DejaVuSans-55"/>
    </defs>
    <g transform="translate(590.159555 492.810803)scale(0.1 -0.1)">
     <use xlink:href="#DejaVuSans-55"/>
     <use x="63.623047" xlink:href="#DejaVuSans-46"/>
     <use x="95.410156" xlink:href="#DejaVuSans-49"/>
     <use x="159.033203" xlink:href="#DejaVuSans-37"/>
    </g>
   </g>
   <g id="text_8">
    <!-- FACFAN -->
    <g transform="translate(374.910526 360.079965)scale(0.1 -0.1)">
     <use xlink:href="#DejaVuSans-70"/>
     <use x="57.378906" xlink:href="#DejaVuSans-65"/>
     <use x="125.771484" xlink:href="#DejaVuSans-67"/>
     <use x="195.595703" xlink:href="#DejaVuSans-70"/>
     <use x="252.974609" xlink:href="#DejaVuSans-65"/>
     <use x="321.382812" xlink:href="#DejaVuSans-78"/>
    </g>
   </g>
   <g id="text_9">
    <!-- 6.5% -->
    <defs>
     <path d="M 10.796875 72.90625 
L 49.515625 72.90625 
L 49.515625 64.59375 
L 19.828125 64.59375 
L 19.828125 46.734375 
Q 21.96875 47.46875 24.109375 47.828125 
Q 26.265625 48.1875 28.421875 48.1875 
Q 40.625 48.1875 47.75 41.5 
Q 54.890625 34.8125 54.890625 23.390625 
Q 54.890625 11.625 47.5625 5.09375 
Q 40.234375 -1.421875 26.90625 -1.421875 
Q 22.3125 -1.421875 17.546875 -0.640625 
Q 12.796875 0.140625 7.71875 1.703125 
L 7.71875 11.625 
Q 12.109375 9.234375 16.796875 8.0625 
Q 21.484375 6.890625 26.703125 6.890625 
Q 35.15625 6.890625 40.078125 11.328125 
Q 45.015625 15.765625 45.015625 23.390625 
Q 45.015625 31 40.078125 35.4375 
Q 35.15625 39.890625 26.703125 39.890625 
Q 22.75 39.890625 18.8125 39.015625 
Q 14.890625 38.140625 10.796875 36.28125 
z
" id="DejaVuSans-53"/>
    </defs>
    <g transform="translate(498.540898 523.297879)scale(0.1 -0.1)">
     <use xlink:href="#DejaVuSans-54"/>
     <use x="63.623047" xlink:href="#DejaVuSans-46"/>
     <use x="95.410156" xlink:href="#DejaVuSans-53"/>
     <use x="159.033203" xlink:href="#DejaVuSans-37"/>
    </g>
   </g>
   <g id="text_10">
    <!-- INISA -->
    <defs>
     <path d="M 9.8125 72.90625 
L 19.671875 72.90625 
L 19.671875 0 
L 9.8125 0 
z
" id="DejaVuSans-73"/>
     <path d="M 53.515625 70.515625 
L 53.515625 60.890625 
Q 47.90625 63.578125 42.921875 64.890625 
Q 37.9375 66.21875 33.296875 66.21875 
Q 25.25 66.21875 20.875 63.09375 
Q 16.5 59.96875 16.5 54.203125 
Q 16.5 49.359375 19.40625 46.890625 
Q 22.3125 44.4375 30.421875 42.921875 
L 36.375 41.703125 
Q 47.40625 39.59375 52.65625 34.296875 
Q 57.90625 29 57.90625 20.125 
Q 57.90625 9.515625 50.796875 4.046875 
Q 43.703125 -1.421875 29.984375 -1.421875 
Q 24.8125 -1.421875 18.96875 -0.25 
Q 13.140625 0.921875 6.890625 3.21875 
L 6.890625 13.375 
Q 12.890625 10.015625 18.65625 8.296875 
Q 24.421875 6.59375 29.984375 6.59375 
Q 38.421875 6.59375 43.015625 9.90625 
Q 47.609375 13.234375 47.609375 19.390625 
Q 47.609375 24.75 44.3125 27.78125 
Q 41.015625 30.8125 33.5 32.328125 
L 27.484375 33.5 
Q 16.453125 35.6875 11.515625 40.375 
Q 6.59375 45.0625 6.59375 53.421875 
Q 6.59375 63.09375 13.40625 68.65625 
Q 20.21875 74.21875 32.171875 74.21875 
Q 37.3125 74.21875 42.625 73.28125 
Q 47.953125 72.359375 53.515625 70.515625 
z
" id="DejaVuSans-83"/>
    </defs>
    <g transform="translate(267.271977 468.128698)scale(0.1 -0.1)">
     <use xlink:href="#DejaVuSans-73"/>
     <use x="29.492188" xlink:href="#DejaVuSans-78"/>
     <use x="104.296875" xlink:href="#DejaVuSans-73"/>
     <use x="133.789062" xlink:href="#DejaVuSans-83"/>
     <use x="197.28125" xlink:href="#DejaVuSans-65"/>
    </g>
   </g>
   <g id="text_11">
    <!-- 5.9% -->
    <defs>
     <path d="M 10.984375 1.515625 
L 10.984375 10.5 
Q 14.703125 8.734375 18.5 7.8125 
Q 22.3125 6.890625 25.984375 6.890625 
Q 35.75 6.890625 40.890625 13.453125 
Q 46.046875 20.015625 46.78125 33.40625 
Q 43.953125 29.203125 39.59375 26.953125 
Q 35.25 24.703125 29.984375 24.703125 
Q 19.046875 24.703125 12.671875 31.3125 
Q 6.296875 37.9375 6.296875 49.421875 
Q 6.296875 60.640625 12.9375 67.421875 
Q 19.578125 74.21875 30.609375 74.21875 
Q 43.265625 74.21875 49.921875 64.515625 
Q 56.59375 54.828125 56.59375 36.375 
Q 56.59375 19.140625 48.40625 8.859375 
Q 40.234375 -1.421875 26.421875 -1.421875 
Q 22.703125 -1.421875 18.890625 -0.6875 
Q 15.09375 0.046875 10.984375 1.515625 
z
M 30.609375 32.421875 
Q 37.25 32.421875 41.125 36.953125 
Q 45.015625 41.5 45.015625 49.421875 
Q 45.015625 57.28125 41.125 61.84375 
Q 37.25 66.40625 30.609375 66.40625 
Q 23.96875 66.40625 20.09375 61.84375 
Q 16.21875 57.28125 16.21875 49.421875 
Q 16.21875 41.5 20.09375 36.953125 
Q 23.96875 32.421875 30.609375 32.421875 
z
" id="DejaVuSans-57"/>
    </defs>
    <g transform="translate(432.712484 582.233551)scale(0.1 -0.1)">
     <use xlink:href="#DejaVuSans-53"/>
     <use x="63.623047" xlink:href="#DejaVuSans-46"/>
     <use x="95.410156" xlink:href="#DejaVuSans-57"/>
     <use x="159.033203" xlink:href="#DejaVuSans-37"/>
    </g>
   </g>
   <g id="text_12">
    <!-- FAALC -->
    <g transform="translate(193.891819 604.87001)scale(0.1 -0.1)">
     <use xlink:href="#DejaVuSans-70"/>
     <use x="57.378906" xlink:href="#DejaVuSans-65"/>
     <use x="125.818359" xlink:href="#DejaVuSans-65"/>
     <use x="194.226562" xlink:href="#DejaVuSans-76"/>
     <use x="249.939453" xlink:href="#DejaVuSans-67"/>
    </g>
   </g>
   <g id="text_13">
    <!-- 5.8% -->
    <g transform="translate(395.634955 656.819722)scale(0.1 -0.1)">
     <use xlink:href="#DejaVuSans-53"/>
     <use x="63.623047" xlink:href="#DejaVuSans-46"/>
     <use x="95.410156" xlink:href="#DejaVuSans-56"/>
     <use x="159.033203" xlink:href="#DejaVuSans-37"/>
    </g>
   </g>
   <g id="text_14">
    <!-- FAMEZ -->
    <defs>
     <path d="M 9.8125 72.90625 
L 24.515625 72.90625 
L 43.109375 23.296875 
L 61.8125 72.90625 
L 76.515625 72.90625 
L 76.515625 0 
L 66.890625 0 
L 66.890625 64.015625 
L 48.09375 14.015625 
L 38.1875 14.015625 
L 19.390625 64.015625 
L 19.390625 0 
L 9.8125 0 
z
" id="DejaVuSans-77"/>
     <path d="M 5.609375 72.90625 
L 62.890625 72.90625 
L 62.890625 65.375 
L 16.796875 8.296875 
L 64.015625 8.296875 
L 64.015625 0 
L 4.5 0 
L 4.5 7.515625 
L 50.59375 64.59375 
L 5.609375 64.59375 
z
" id="DejaVuSans-90"/>
    </defs>
    <g transform="translate(176.425021 746.31027)scale(0.1 -0.1)">
     <use xlink:href="#DejaVuSans-70"/>
     <use x="57.378906" xlink:href="#DejaVuSans-65"/>
     <use x="125.787109" xlink:href="#DejaVuSans-77"/>
     <use x="212.066406" xlink:href="#DejaVuSans-69"/>
     <use x="275.25" xlink:href="#DejaVuSans-90"/>
    </g>
   </g>
   <g id="text_15">
    <!-- 5.1% -->
    <g transform="translate(387.41585 733.968954)scale(0.1 -0.1)">
     <use xlink:href="#DejaVuSans-53"/>
     <use x="63.623047" xlink:href="#DejaVuSans-46"/>
     <use x="95.410156" xlink:href="#DejaVuSans-49"/>
     <use x="159.033203" xlink:href="#DejaVuSans-37"/>
    </g>
   </g>
   <g id="text_16">
    <!-- CPAQ -->
    <g transform="translate(213.187027 876.97346)scale(0.1 -0.1)">
     <use xlink:href="#DejaVuSans-67"/>
     <use x="69.824219" xlink:href="#DejaVuSans-80"/>
     <use x="130.033203" xlink:href="#DejaVuSans-65"/>
     <use x="198.425781" xlink:href="#DejaVuSans-81"/>
    </g>
   </g>
   <g id="text_17">
    <!-- 5.1% -->
    <g transform="translate(403.834614 805.239785)scale(0.1 -0.1)">
     <use xlink:href="#DejaVuSans-53"/>
     <use x="63.623047" xlink:href="#DejaVuSans-46"/>
     <use x="95.410156" xlink:href="#DejaVuSans-49"/>
     <use x="159.033203" xlink:href="#DejaVuSans-37"/>
    </g>
   </g>
   <g id="text_18">
    <!-- INBIO -->
    <defs>
     <path d="M 19.671875 34.8125 
L 19.671875 8.109375 
L 35.5 8.109375 
Q 43.453125 8.109375 47.28125 11.40625 
Q 51.125 14.703125 51.125 21.484375 
Q 51.125 28.328125 47.28125 31.5625 
Q 43.453125 34.8125 35.5 34.8125 
z
M 19.671875 64.796875 
L 19.671875 42.828125 
L 34.28125 42.828125 
Q 41.5 42.828125 45.03125 45.53125 
Q 48.578125 48.25 48.578125 53.8125 
Q 48.578125 59.328125 45.03125 62.0625 
Q 41.5 64.796875 34.28125 64.796875 
z
M 9.8125 72.90625 
L 35.015625 72.90625 
Q 46.296875 72.90625 52.390625 68.21875 
Q 58.5 63.53125 58.5 54.890625 
Q 58.5 48.1875 55.375 44.234375 
Q 52.25 40.28125 46.1875 39.3125 
Q 53.46875 37.75 57.5 32.78125 
Q 61.53125 27.828125 61.53125 20.40625 
Q 61.53125 10.640625 54.890625 5.3125 
Q 48.25 0 35.984375 0 
L 9.8125 0 
z
" id="DejaVuSans-66"/>
     <path d="M 39.40625 66.21875 
Q 28.65625 66.21875 22.328125 58.203125 
Q 16.015625 50.203125 16.015625 36.375 
Q 16.015625 22.609375 22.328125 14.59375 
Q 28.65625 6.59375 39.40625 6.59375 
Q 50.140625 6.59375 56.421875 14.59375 
Q 62.703125 22.609375 62.703125 36.375 
Q 62.703125 50.203125 56.421875 58.203125 
Q 50.140625 66.21875 39.40625 66.21875 
z
M 39.40625 74.21875 
Q 54.734375 74.21875 63.90625 63.9375 
Q 73.09375 53.65625 73.09375 36.375 
Q 73.09375 19.140625 63.90625 8.859375 
Q 54.734375 -1.421875 39.40625 -1.421875 
Q 24.03125 -1.421875 14.8125 8.828125 
Q 5.609375 19.09375 5.609375 36.375 
Q 5.609375 53.65625 14.8125 63.9375 
Q 24.03125 74.21875 39.40625 74.21875 
z
" id="DejaVuSans-79"/>
    </defs>
    <g transform="translate(281.996545 990.453114)scale(0.1 -0.1)">
     <use xlink:href="#DejaVuSans-73"/>
     <use x="29.492188" xlink:href="#DejaVuSans-78"/>
     <use x="104.296875" xlink:href="#DejaVuSans-66"/>
     <use x="172.900391" xlink:href="#DejaVuSans-73"/>
     <use x="202.392578" xlink:href="#DejaVuSans-79"/>
    </g>
   </g>
   <g id="text_19">
    <!-- 5.0% -->
    <defs>
     <path d="M 31.78125 66.40625 
Q 24.171875 66.40625 20.328125 58.90625 
Q 16.5 51.421875 16.5 36.375 
Q 16.5 21.390625 20.328125 13.890625 
Q 24.171875 6.390625 31.78125 6.390625 
Q 39.453125 6.390625 43.28125 13.890625 
Q 47.125 21.390625 47.125 36.375 
Q 47.125 51.421875 43.28125 58.90625 
Q 39.453125 66.40625 31.78125 66.40625 
z
M 31.78125 74.21875 
Q 44.046875 74.21875 50.515625 64.515625 
Q 56.984375 54.828125 56.984375 36.375 
Q 56.984375 17.96875 50.515625 8.265625 
Q 44.046875 -1.421875 31.78125 -1.421875 
Q 19.53125 -1.421875 13.0625 8.265625 
Q 6.59375 17.96875 6.59375 36.375 
Q 6.59375 54.828125 13.0625 64.515625 
Q 19.53125 74.21875 31.78125 74.21875 
z
" id="DejaVuSans-48"/>
    </defs>
    <g transform="translate(441.585261 867.137778)scale(0.1 -0.1)">
     <use xlink:href="#DejaVuSans-53"/>
     <use x="63.623047" xlink:href="#DejaVuSans-46"/>
     <use x="95.410156" xlink:href="#DejaVuSans-48"/>
     <use x="159.033203" xlink:href="#DejaVuSans-37"/>
    </g>
   </g>
   <g id="text_20">
    <!-- CPCS -->
    <g transform="translate(378.109237 1072.073829)scale(0.1 -0.1)">
     <use xlink:href="#DejaVuSans-67"/>
     <use x="69.824219" xlink:href="#DejaVuSans-80"/>
     <use x="130.126953" xlink:href="#DejaVuSans-67"/>
     <use x="199.951172" xlink:href="#DejaVuSans-83"/>
    </g>
   </g>
   <g id="text_21">
    <!-- 4.5% -->
    <g transform="translate(493.04474 911.658168)scale(0.1 -0.1)">
     <use xlink:href="#DejaVuSans-52"/>
     <use x="63.623047" xlink:href="#DejaVuSans-46"/>
     <use x="95.410156" xlink:href="#DejaVuSans-53"/>
     <use x="159.033203" xlink:href="#DejaVuSans-37"/>
    </g>
   </g>
   <g id="text_22">
    <!-- FAED -->
    <defs>
     <path d="M 19.671875 64.796875 
L 19.671875 8.109375 
L 31.59375 8.109375 
Q 46.6875 8.109375 53.6875 14.9375 
Q 60.6875 21.78125 60.6875 36.53125 
Q 60.6875 51.171875 53.6875 57.984375 
Q 46.6875 64.796875 31.59375 64.796875 
z
M 9.8125 72.90625 
L 30.078125 72.90625 
Q 51.265625 72.90625 61.171875 64.09375 
Q 71.09375 55.28125 71.09375 36.53125 
Q 71.09375 17.671875 61.125 8.828125 
Q 51.171875 0 30.078125 0 
L 9.8125 0 
z
" id="DejaVuSans-68"/>
    </defs>
    <g transform="translate(472.848398 1116.478607)scale(0.1 -0.1)">
     <use xlink:href="#DejaVuSans-70"/>
     <use x="57.378906" xlink:href="#DejaVuSans-65"/>
     <use x="125.787109" xlink:href="#DejaVuSans-69"/>
     <use x="188.970703" xlink:href="#DejaVuSans-68"/>
    </g>
   </g>
   <g id="text_23">
    <!-- 3.5% -->
    <defs>
     <path d="M 40.578125 39.3125 
Q 47.65625 37.796875 51.625 33 
Q 55.609375 28.21875 55.609375 21.1875 
Q 55.609375 10.40625 48.1875 4.484375 
Q 40.765625 -1.421875 27.09375 -1.421875 
Q 22.515625 -1.421875 17.65625 -0.515625 
Q 12.796875 0.390625 7.625 2.203125 
L 7.625 11.71875 
Q 11.71875 9.328125 16.59375 8.109375 
Q 21.484375 6.890625 26.8125 6.890625 
Q 36.078125 6.890625 40.9375 10.546875 
Q 45.796875 14.203125 45.796875 21.1875 
Q 45.796875 27.640625 41.28125 31.265625 
Q 36.765625 34.90625 28.71875 34.90625 
L 20.21875 34.90625 
L 20.21875 43.015625 
L 29.109375 43.015625 
Q 36.375 43.015625 40.234375 45.921875 
Q 44.09375 48.828125 44.09375 54.296875 
Q 44.09375 59.90625 40.109375 62.90625 
Q 36.140625 65.921875 28.71875 65.921875 
Q 24.65625 65.921875 20.015625 65.03125 
Q 15.375 64.15625 9.8125 62.3125 
L 9.8125 71.09375 
Q 15.4375 72.65625 20.34375 73.4375 
Q 25.25 74.21875 29.59375 74.21875 
Q 40.828125 74.21875 47.359375 69.109375 
Q 53.90625 64.015625 53.90625 55.328125 
Q 53.90625 49.265625 50.4375 45.09375 
Q 46.96875 40.921875 40.578125 39.3125 
z
" id="DejaVuSans-51"/>
    </defs>
    <g transform="translate(544.858714 935.878956)scale(0.1 -0.1)">
     <use xlink:href="#DejaVuSans-51"/>
     <use x="63.623047" xlink:href="#DejaVuSans-46"/>
     <use x="95.410156" xlink:href="#DejaVuSans-53"/>
     <use x="159.033203" xlink:href="#DejaVuSans-37"/>
    </g>
   </g>
   <g id="text_24">
    <!-- FACH -->
    <defs>
     <path d="M 9.8125 72.90625 
L 19.671875 72.90625 
L 19.671875 43.015625 
L 55.515625 43.015625 
L 55.515625 72.90625 
L 65.375 72.90625 
L 65.375 0 
L 55.515625 0 
L 55.515625 34.71875 
L 19.671875 34.71875 
L 19.671875 0 
L 9.8125 0 
z
" id="DejaVuSans-72"/>
    </defs>
    <g transform="translate(561.293859 1134.724213)scale(0.1 -0.1)">
     <use xlink:href="#DejaVuSans-70"/>
     <use x="57.378906" xlink:href="#DejaVuSans-65"/>
     <use x="125.771484" xlink:href="#DejaVuSans-67"/>
     <use x="195.595703" xlink:href="#DejaVuSans-72"/>
    </g>
   </g>
   <g id="text_25">
    <!-- 3.4% -->
    <g transform="translate(593.365045 945.831105)scale(0.1 -0.1)">
     <use xlink:href="#DejaVuSans-51"/>
     <use x="63.623047" xlink:href="#DejaVuSans-46"/>
     <use x="95.410156" xlink:href="#DejaVuSans-52"/>
     <use x="159.033203" xlink:href="#DejaVuSans-37"/>
    </g>
   </g>
   <g id="text_26">
    <!-- INQUI -->
    <defs>
     <path d="M 8.6875 72.90625 
L 18.609375 72.90625 
L 18.609375 28.609375 
Q 18.609375 16.890625 22.84375 11.734375 
Q 27.09375 6.59375 36.625 6.59375 
Q 46.09375 6.59375 50.34375 11.734375 
Q 54.59375 16.890625 54.59375 28.609375 
L 54.59375 72.90625 
L 64.5 72.90625 
L 64.5 27.390625 
Q 64.5 13.140625 57.4375 5.859375 
Q 50.390625 -1.421875 36.625 -1.421875 
Q 22.796875 -1.421875 15.734375 5.859375 
Q 8.6875 13.140625 8.6875 27.390625 
z
" id="DejaVuSans-85"/>
    </defs>
    <g transform="translate(673.277484 1134.003291)scale(0.1 -0.1)">
     <use xlink:href="#DejaVuSans-73"/>
     <use x="29.492188" xlink:href="#DejaVuSans-78"/>
     <use x="104.296875" xlink:href="#DejaVuSans-81"/>
     <use x="183.007812" xlink:href="#DejaVuSans-85"/>
     <use x="256.201172" xlink:href="#DejaVuSans-73"/>
    </g>
   </g>
   <g id="text_27">
    <!-- 3.1% -->
    <g transform="translate(639.676284 945.437874)scale(0.1 -0.1)">
     <use xlink:href="#DejaVuSans-51"/>
     <use x="63.623047" xlink:href="#DejaVuSans-46"/>
     <use x="95.410156" xlink:href="#DejaVuSans-49"/>
     <use x="159.033203" xlink:href="#DejaVuSans-37"/>
    </g>
   </g>
   <g id="text_28">
    <!-- FACOM -->
    <g transform="translate(750.648592 1117.900555)scale(0.1 -0.1)">
     <use xlink:href="#DejaVuSans-70"/>
     <use x="57.378906" xlink:href="#DejaVuSans-65"/>
     <use x="125.771484" xlink:href="#DejaVuSans-67"/>
     <use x="195.595703" xlink:href="#DejaVuSans-79"/>
     <use x="274.306641" xlink:href="#DejaVuSans-77"/>
    </g>
   </g>
   <g id="text_29">
    <!-- 3.0% -->
    <g transform="translate(681.878706 936.654564)scale(0.1 -0.1)">
     <use xlink:href="#DejaVuSans-51"/>
     <use x="63.623047" xlink:href="#DejaVuSans-46"/>
     <use x="95.410156" xlink:href="#DejaVuSans-48"/>
     <use x="159.033203" xlink:href="#DejaVuSans-37"/>
    </g>
   </g>
   <g id="text_30">
    <!-- CPAR -->
    <defs>
     <path d="M 44.390625 34.1875 
Q 47.5625 33.109375 50.5625 29.59375 
Q 53.5625 26.078125 56.59375 19.921875 
L 66.609375 0 
L 56 0 
L 46.6875 18.703125 
Q 43.0625 26.03125 39.671875 28.421875 
Q 36.28125 30.8125 30.421875 30.8125 
L 19.671875 30.8125 
L 19.671875 0 
L 9.8125 0 
L 9.8125 72.90625 
L 32.078125 72.90625 
Q 44.578125 72.90625 50.734375 67.671875 
Q 56.890625 62.453125 56.890625 51.90625 
Q 56.890625 45.015625 53.6875 40.46875 
Q 50.484375 35.9375 44.390625 34.1875 
z
M 19.671875 64.796875 
L 19.671875 38.921875 
L 32.078125 38.921875 
Q 39.203125 38.921875 42.84375 42.21875 
Q 46.484375 45.515625 46.484375 51.90625 
Q 46.484375 58.296875 42.84375 61.546875 
Q 39.203125 64.796875 32.078125 64.796875 
z
" id="DejaVuSans-82"/>
    </defs>
    <g transform="translate(818.365502 1090.243432)scale(0.1 -0.1)">
     <use xlink:href="#DejaVuSans-67"/>
     <use x="69.824219" xlink:href="#DejaVuSans-80"/>
     <use x="130.033203" xlink:href="#DejaVuSans-65"/>
     <use x="198.441406" xlink:href="#DejaVuSans-82"/>
    </g>
   </g>
   <g id="text_31">
    <!-- 2.6% -->
    <defs>
     <path d="M 19.1875 8.296875 
L 53.609375 8.296875 
L 53.609375 0 
L 7.328125 0 
L 7.328125 8.296875 
Q 12.9375 14.109375 22.625 23.890625 
Q 32.328125 33.6875 34.8125 36.53125 
Q 39.546875 41.84375 41.421875 45.53125 
Q 43.3125 49.21875 43.3125 52.78125 
Q 43.3125 58.59375 39.234375 62.25 
Q 35.15625 65.921875 28.609375 65.921875 
Q 23.96875 65.921875 18.8125 64.3125 
Q 13.671875 62.703125 7.8125 59.421875 
L 7.8125 69.390625 
Q 13.765625 71.78125 18.9375 73 
Q 24.125 74.21875 28.421875 74.21875 
Q 39.75 74.21875 46.484375 68.546875 
Q 53.21875 62.890625 53.21875 53.421875 
Q 53.21875 48.921875 51.53125 44.890625 
Q 49.859375 40.875 45.40625 35.40625 
Q 44.1875 33.984375 37.640625 27.21875 
Q 31.109375 20.453125 19.1875 8.296875 
z
" id="DejaVuSans-50"/>
    </defs>
    <g transform="translate(718.815203 921.568861)scale(0.1 -0.1)">
     <use xlink:href="#DejaVuSans-50"/>
     <use x="63.623047" xlink:href="#DejaVuSans-46"/>
     <use x="95.410156" xlink:href="#DejaVuSans-54"/>
     <use x="159.033203" xlink:href="#DejaVuSans-37"/>
    </g>
   </g>
   <g id="text_32">
    <!-- FAMED -->
    <g transform="translate(873.586887 1056.134408)scale(0.1 -0.1)">
     <use xlink:href="#DejaVuSans-70"/>
     <use x="57.378906" xlink:href="#DejaVuSans-65"/>
     <use x="125.787109" xlink:href="#DejaVuSans-77"/>
     <use x="212.066406" xlink:href="#DejaVuSans-69"/>
     <use x="275.25" xlink:href="#DejaVuSans-68"/>
    </g>
   </g>
   <g id="text_33">
    <!-- 2.3% -->
    <g transform="translate(748.935958 902.963938)scale(0.1 -0.1)">
     <use xlink:href="#DejaVuSans-50"/>
     <use x="63.623047" xlink:href="#DejaVuSans-46"/>
     <use x="95.410156" xlink:href="#DejaVuSans-51"/>
     <use x="159.033203" xlink:href="#DejaVuSans-37"/>
    </g>
   </g>
   <g id="text_34">
    <!-- CPCX -->
    <defs>
     <path d="M 6.296875 72.90625 
L 16.890625 72.90625 
L 35.015625 45.796875 
L 53.21875 72.90625 
L 63.8125 72.90625 
L 40.375 37.890625 
L 65.375 0 
L 54.78125 0 
L 34.28125 31 
L 13.625 0 
L 2.984375 0 
L 29 38.921875 
z
" id="DejaVuSans-88"/>
    </defs>
    <g transform="translate(918.65234 1018.029275)scale(0.1 -0.1)">
     <use xlink:href="#DejaVuSans-67"/>
     <use x="69.824219" xlink:href="#DejaVuSans-80"/>
     <use x="130.126953" xlink:href="#DejaVuSans-67"/>
     <use x="199.951172" xlink:href="#DejaVuSans-88"/>
    </g>
   </g>
   <g id="text_35">
    <!-- 2.2% -->
    <g transform="translate(773.517114 882.179321)scale(0.1 -0.1)">
     <use xlink:href="#DejaVuSans-50"/>
     <use x="63.623047" xlink:href="#DejaVuSans-46"/>
     <use x="95.410156" xlink:href="#DejaVuSans-50"/>
     <use x="159.033203" xlink:href="#DejaVuSans-37"/>
    </g>
   </g>
   <g id="text_36">
    <!-- CPPP -->
    <g transform="translate(955.71765 976.74674)scale(0.1 -0.1)">
     <use xlink:href="#DejaVuSans-67"/>
     <use x="69.824219" xlink:href="#DejaVuSans-80"/>
     <use x="130.126953" xlink:href="#DejaVuSans-80"/>
     <use x="190.429688" xlink:href="#DejaVuSans-80"/>
    </g>
   </g>
   <g id="text_37">
    <!-- 2.1% -->
    <g transform="translate(793.734556 859.661574)scale(0.1 -0.1)">
     <use xlink:href="#DejaVuSans-50"/>
     <use x="63.623047" xlink:href="#DejaVuSans-46"/>
     <use x="95.410156" xlink:href="#DejaVuSans-49"/>
     <use x="159.033203" xlink:href="#DejaVuSans-37"/>
    </g>
   </g>
   <g id="text_38">
    <!-- FAODO -->
    <g transform="translate(986.37943 931.930065)scale(0.1 -0.1)">
     <use xlink:href="#DejaVuSans-70"/>
     <use x="57.378906" xlink:href="#DejaVuSans-65"/>
     <use x="125.771484" xlink:href="#DejaVuSans-79"/>
     <use x="204.482422" xlink:href="#DejaVuSans-68"/>
     <use x="281.484375" xlink:href="#DejaVuSans-79"/>
    </g>
   </g>
   <g id="text_39">
    <!-- 2.1% -->
    <g transform="translate(810.459163 835.216115)scale(0.1 -0.1)">
     <use xlink:href="#DejaVuSans-50"/>
     <use x="63.623047" xlink:href="#DejaVuSans-46"/>
     <use x="95.410156" xlink:href="#DejaVuSans-49"/>
     <use x="159.033203" xlink:href="#DejaVuSans-37"/>
    </g>
   </g>
   <g id="text_40">
    <!-- FADIR -->
    <g transform="translate(1009.554112 886.763663)scale(0.1 -0.1)">
     <use xlink:href="#DejaVuSans-70"/>
     <use x="57.378906" xlink:href="#DejaVuSans-65"/>
     <use x="125.787109" xlink:href="#DejaVuSans-68"/>
     <use x="202.789062" xlink:href="#DejaVuSans-73"/>
     <use x="232.28125" xlink:href="#DejaVuSans-82"/>
    </g>
   </g>
   <g id="text_41">
    <!-- 1.8% -->
    <g transform="translate(823.099899 810.579896)scale(0.1 -0.1)">
     <use xlink:href="#DejaVuSans-49"/>
     <use x="63.623047" xlink:href="#DejaVuSans-46"/>
     <use x="95.410156" xlink:href="#DejaVuSans-56"/>
     <use x="159.033203" xlink:href="#DejaVuSans-37"/>
    </g>
   </g>
   <g id="text_42">
    <!-- ESAN -->
    <g transform="translate(1024.619232 847.014102)scale(0.1 -0.1)">
     <use xlink:href="#DejaVuSans-69"/>
     <use x="63.183594" xlink:href="#DejaVuSans-83"/>
     <use x="126.675781" xlink:href="#DejaVuSans-65"/>
     <use x="195.083984" xlink:href="#DejaVuSans-78"/>
    </g>
   </g>
   <g id="text_43">
    <!-- 1.4% -->
    <g transform="translate(831.317237 788.898317)scale(0.1 -0.1)">
     <use xlink:href="#DejaVuSans-49"/>
     <use x="63.623047" xlink:href="#DejaVuSans-46"/>
     <use x="95.410156" xlink:href="#DejaVuSans-52"/>
     <use x="159.033203" xlink:href="#DejaVuSans-37"/>
    </g>
   </g>
   <g id="text_44">
    <!-- CPNV -->
    <defs>
     <path d="M 28.609375 0 
L 0.78125 72.90625 
L 11.078125 72.90625 
L 34.1875 11.53125 
L 57.328125 72.90625 
L 67.578125 72.90625 
L 39.796875 0 
z
" id="DejaVuSans-86"/>
    </defs>
    <g transform="translate(1034.554591 810.554679)scale(0.1 -0.1)">
     <use xlink:href="#DejaVuSans-67"/>
     <use x="69.824219" xlink:href="#DejaVuSans-80"/>
     <use x="130.126953" xlink:href="#DejaVuSans-78"/>
     <use x="204.931641" xlink:href="#DejaVuSans-86"/>
    </g>
   </g>
   <g id="text_45">
    <!-- 1.4% -->
    <g transform="translate(836.736524 769.011359)scale(0.1 -0.1)">
     <use xlink:href="#DejaVuSans-49"/>
     <use x="63.623047" xlink:href="#DejaVuSans-46"/>
     <use x="95.410156" xlink:href="#DejaVuSans-52"/>
     <use x="159.033203" xlink:href="#DejaVuSans-37"/>
    </g>
   </g>
   <g id="text_46">
    <!-- INFI -->
    <g transform="translate(1040.996649 774.517176)scale(0.1 -0.1)">
     <use xlink:href="#DejaVuSans-73"/>
     <use x="29.492188" xlink:href="#DejaVuSans-78"/>
     <use x="104.296875" xlink:href="#DejaVuSans-70"/>
     <use x="161.816406" xlink:href="#DejaVuSans-73"/>
    </g>
   </g>
   <g id="text_47">
    <!-- 1.4% -->
    <g transform="translate(840.250374 749.354539)scale(0.1 -0.1)">
     <use xlink:href="#DejaVuSans-49"/>
     <use x="63.623047" xlink:href="#DejaVuSans-46"/>
     <use x="95.410156" xlink:href="#DejaVuSans-52"/>
     <use x="159.033203" xlink:href="#DejaVuSans-37"/>
    </g>
   </g>
   <g id="text_48">
    <!-- INMA -->
    <g transform="translate(1043.639622 748.667387)scale(0.1 -0.1)">
     <use xlink:href="#DejaVuSans-73"/>
     <use x="29.492188" xlink:href="#DejaVuSans-78"/>
     <use x="104.296875" xlink:href="#DejaVuSans-77"/>
     <use x="190.576172" xlink:href="#DejaVuSans-65"/>
    </g>
   </g>
   <g id="text_49">
    <!-- 0.6% -->
    <g transform="translate(841.691995 735.254654)scale(0.1 -0.1)">
     <use xlink:href="#DejaVuSans-48"/>
     <use x="63.623047" xlink:href="#DejaVuSans-46"/>
     <use x="95.410156" xlink:href="#DejaVuSans-54"/>
     <use x="159.033203" xlink:href="#DejaVuSans-37"/>
    </g>
   </g>
   <g id="text_50">
    <!-- CPNA -->
    <g transform="translate(1044.401515 734.512877)scale(0.1 -0.1)">
     <use xlink:href="#DejaVuSans-67"/>
     <use x="69.824219" xlink:href="#DejaVuSans-80"/>
     <use x="130.126953" xlink:href="#DejaVuSans-78"/>
     <use x="204.931641" xlink:href="#DejaVuSans-65"/>
    </g>
   </g>
   <g id="text_51">
    <!-- 0.5% -->
    <g transform="translate(842.107573 727.534012)scale(0.1 -0.1)">
     <use xlink:href="#DejaVuSans-48"/>
     <use x="63.623047" xlink:href="#DejaVuSans-46"/>
     <use x="95.410156" xlink:href="#DejaVuSans-53"/>
     <use x="159.033203" xlink:href="#DejaVuSans-37"/>
    </g>
   </g>
   <g id="text_52">
    <!-- PROECE -->
    <g transform="translate(1044.62382 726.246853)scale(0.1 -0.1)">
     <use xlink:href="#DejaVuSans-80"/>
     <use x="60.302734" xlink:href="#DejaVuSans-82"/>
     <use x="129.785156" xlink:href="#DejaVuSans-79"/>
     <use x="208.496094" xlink:href="#DejaVuSans-69"/>
     <use x="271.679688" xlink:href="#DejaVuSans-67"/>
     <use x="341.503906" xlink:href="#DejaVuSans-69"/>
    </g>
   </g>
   <g id="text_53">
    <!-- 0.2% -->
    <g transform="translate(842.228831 723.025272)scale(0.1 -0.1)">
     <use xlink:href="#DejaVuSans-48"/>
     <use x="63.623047" xlink:href="#DejaVuSans-46"/>
     <use x="95.410156" xlink:href="#DejaVuSans-50"/>
     <use x="159.033203" xlink:href="#DejaVuSans-37"/>
    </g>
   </g>
   <g id="text_54">
    <!-- FAAC -->
    <defs>
     <path d="M 64.40625 67.28125 
L 64.40625 56.890625 
Q 59.421875 61.53125 53.78125 63.8125 
Q 48.140625 66.109375 41.796875 66.109375 
Q 29.296875 66.109375 22.65625 58.46875 
Q 16.015625 50.828125 16.015625 36.375 
Q 16.015625 21.96875 22.65625 14.328125 
Q 29.296875 6.6875 41.796875 6.6875 
Q 48.140625 6.6875 53.78125 8.984375 
Q 59.421875 11.28125 64.40625 15.921875 
L 64.40625 5.609375 
Q 59.234375 2.09375 53.4375 0.328125 
Q 47.65625 -1.421875 41.21875 -1.421875 
Q 24.65625 -1.421875 15.125 8.703125 
Q 5.609375 18.84375 5.609375 36.375 
Q 5.609375 53.953125 15.125 64.078125 
Q 24.65625 74.21875 41.21875 74.21875 
Q 47.75 74.21875 53.53125 72.484375 
Q 59.328125 70.75 64.40625 67.28125 
z
M 43.859375 0 
Q 46.53125 -3.03125 47.84375 -5.59375 
Q 49.171875 -8.15625 49.171875 -10.5 
Q 49.171875 -14.84375 46.234375 -17.0625 
Q 43.3125 -19.28125 37.546875 -19.28125 
Q 35.3125 -19.28125 33.1875 -18.984375 
Q 31.0625 -18.703125 28.953125 -18.109375 
L 28.953125 -11.71875 
Q 30.625 -12.546875 32.421875 -12.90625 
Q 34.234375 -13.28125 36.53125 -13.28125 
Q 39.40625 -13.28125 40.875 -12.109375 
Q 42.34375 -10.9375 42.34375 -8.6875 
Q 42.34375 -7.234375 41.28125 -5.109375 
Q 40.234375 -2.984375 38.046875 0 
z
" id="DejaVuSans-199"/>
    </defs>
    <g transform="translate(1044.668955 722.703231)scale(0.1 -0.1)">
     <use xlink:href="#DejaVuSans-70"/>
     <use x="57.378906" xlink:href="#DejaVuSans-65"/>
     <use x="125.818359" xlink:href="#DejaVuSans-65"/>
     <use x="194.210938" xlink:href="#DejaVuSans-199"/>
     <use x="264.035156" xlink:href="#DejaVuSans-67"/>
    </g>
   </g>
   <g id="text_55">
    <!-- 0.1% -->
    <g transform="translate(842.25345 721.092387)scale(0.1 -0.1)">
     <use xlink:href="#DejaVuSans-48"/>
     <use x="63.623047" xlink:href="#DejaVuSans-46"/>
     <use x="95.410156" xlink:href="#DejaVuSans-49"/>
     <use x="159.033203" xlink:href="#DejaVuSans-37"/>
    </g>
   </g>
   <g id="text_56">
    <!-- NHU -->
    <g transform="translate(1044.682328 720.340658)scale(0.1 -0.1)">
     <use xlink:href="#DejaVuSans-78"/>
     <use x="74.804688" xlink:href="#DejaVuSans-72"/>
     <use x="150" xlink:href="#DejaVuSans-85"/>
    </g>
   </g>
   <g id="text_57">
    <!-- 0.1% -->
    <g transform="translate(842.260744 719.803711)scale(0.1 -0.1)">
     <use xlink:href="#DejaVuSans-48"/>
     <use x="63.623047" xlink:href="#DejaVuSans-46"/>
     <use x="95.410156" xlink:href="#DejaVuSans-49"/>
     <use x="159.033203" xlink:href="#DejaVuSans-37"/>
    </g>
   </g>
   <g id="legend_1">
    <g id="patch_58">
     <path d="M 1022.129688 661.0875 
L 1094.6 661.0875 
Q 1096.6 661.0875 1096.6 659.0875 
L 1096.6 249.1 
Q 1096.6 247.1 1094.6 247.1 
L 1022.129688 247.1 
Q 1020.129688 247.1 1020.129688 249.1 
L 1020.129688 659.0875 
Q 1020.129688 661.0875 1022.129688 661.0875 
z
" style="fill:#ffffff;opacity:0.8;stroke:#cccccc;stroke-linejoin:miter;"/>
    </g>
    <g id="patch_59">
     <path d="M 1024.129688 258.698438 
L 1044.129688 258.698438 
L 1044.129688 251.698438 
L 1024.129688 251.698438 
z
" style="fill:#0000ff;"/>
    </g>
    <g id="text_58">
     <!-- CPTL -->
     <g transform="translate(1052.129688 258.698438)scale(0.1 -0.1)">
      <use xlink:href="#DejaVuSans-67"/>
      <use x="69.824219" xlink:href="#DejaVuSans-80"/>
      <use x="130.126953" xlink:href="#DejaVuSans-84"/>
      <use x="191.210938" xlink:href="#DejaVuSans-76"/>
     </g>
    </g>
    <g id="patch_60">
     <path d="M 1024.129688 273.376563 
L 1044.129688 273.376563 
L 1044.129688 266.376563 
L 1024.129688 266.376563 
z
" style="fill:#008080;"/>
    </g>
    <g id="text_59">
     <!-- CPAN -->
     <g transform="translate(1052.129688 273.376563)scale(0.1 -0.1)">
      <use xlink:href="#DejaVuSans-67"/>
      <use x="69.824219" xlink:href="#DejaVuSans-80"/>
      <use x="130.033203" xlink:href="#DejaVuSans-65"/>
      <use x="198.441406" xlink:href="#DejaVuSans-78"/>
     </g>
    </g>
    <g id="patch_61">
     <path d="M 1024.129688 288.054688 
L 1044.129688 288.054688 
L 1044.129688 281.054688 
L 1024.129688 281.054688 
z
" style="fill:#99ff99;"/>
    </g>
    <g id="text_60">
     <!-- FAENG -->
     <g transform="translate(1052.129688 288.054688)scale(0.1 -0.1)">
      <use xlink:href="#DejaVuSans-70"/>
      <use x="57.378906" xlink:href="#DejaVuSans-65"/>
      <use x="125.787109" xlink:href="#DejaVuSans-69"/>
      <use x="188.970703" xlink:href="#DejaVuSans-78"/>
      <use x="263.775391" xlink:href="#DejaVuSans-71"/>
     </g>
    </g>
    <g id="patch_62">
     <path d="M 1024.129688 302.732813 
L 1044.129688 302.732813 
L 1044.129688 295.732813 
L 1024.129688 295.732813 
z
" style="fill:#ffcc99;"/>
    </g>
    <g id="text_61">
     <!-- FACFAN -->
     <g transform="translate(1052.129688 302.732813)scale(0.1 -0.1)">
      <use xlink:href="#DejaVuSans-70"/>
      <use x="57.378906" xlink:href="#DejaVuSans-65"/>
      <use x="125.771484" xlink:href="#DejaVuSans-67"/>
      <use x="195.595703" xlink:href="#DejaVuSans-70"/>
      <use x="252.974609" xlink:href="#DejaVuSans-65"/>
      <use x="321.382812" xlink:href="#DejaVuSans-78"/>
     </g>
    </g>
    <g id="patch_63">
     <path d="M 1024.129688 317.410938 
L 1044.129688 317.410938 
L 1044.129688 310.410938 
L 1024.129688 310.410938 
z
" style="fill:#52be80;"/>
    </g>
    <g id="text_62">
     <!-- INISA -->
     <g transform="translate(1052.129688 317.410938)scale(0.1 -0.1)">
      <use xlink:href="#DejaVuSans-73"/>
      <use x="29.492188" xlink:href="#DejaVuSans-78"/>
      <use x="104.296875" xlink:href="#DejaVuSans-73"/>
      <use x="133.789062" xlink:href="#DejaVuSans-83"/>
      <use x="197.28125" xlink:href="#DejaVuSans-65"/>
     </g>
    </g>
    <g id="patch_64">
     <path d="M 1024.129688 332.089063 
L 1044.129688 332.089063 
L 1044.129688 325.089063 
L 1024.129688 325.089063 
z
" style="fill:#f7dc6f;"/>
    </g>
    <g id="text_63">
     <!-- FAALC -->
     <g transform="translate(1052.129688 332.089063)scale(0.1 -0.1)">
      <use xlink:href="#DejaVuSans-70"/>
      <use x="57.378906" xlink:href="#DejaVuSans-65"/>
      <use x="125.818359" xlink:href="#DejaVuSans-65"/>
      <use x="194.226562" xlink:href="#DejaVuSans-76"/>
      <use x="249.939453" xlink:href="#DejaVuSans-67"/>
     </g>
    </g>
    <g id="patch_65">
     <path d="M 1024.129688 346.767188 
L 1044.129688 346.767188 
L 1044.129688 339.767188 
L 1024.129688 339.767188 
z
" style="fill:#6c3483;"/>
    </g>
    <g id="text_64">
     <!-- FAMEZ -->
     <g transform="translate(1052.129688 346.767188)scale(0.1 -0.1)">
      <use xlink:href="#DejaVuSans-70"/>
      <use x="57.378906" xlink:href="#DejaVuSans-65"/>
      <use x="125.787109" xlink:href="#DejaVuSans-77"/>
      <use x="212.066406" xlink:href="#DejaVuSans-69"/>
      <use x="275.25" xlink:href="#DejaVuSans-90"/>
     </g>
    </g>
    <g id="patch_66">
     <path d="M 1024.129688 361.445313 
L 1044.129688 361.445313 
L 1044.129688 354.445313 
L 1024.129688 354.445313 
z
" style="fill:#dc143c;"/>
    </g>
    <g id="text_65">
     <!-- CPAQ -->
     <g transform="translate(1052.129688 361.445313)scale(0.1 -0.1)">
      <use xlink:href="#DejaVuSans-67"/>
      <use x="69.824219" xlink:href="#DejaVuSans-80"/>
      <use x="130.033203" xlink:href="#DejaVuSans-65"/>
      <use x="198.425781" xlink:href="#DejaVuSans-81"/>
     </g>
    </g>
    <g id="patch_67">
     <path d="M 1024.129688 376.123438 
L 1044.129688 376.123438 
L 1044.129688 369.123438 
L 1024.129688 369.123438 
z
" style="fill:#00ced1;"/>
    </g>
    <g id="text_66">
     <!-- INBIO -->
     <g transform="translate(1052.129688 376.123438)scale(0.1 -0.1)">
      <use xlink:href="#DejaVuSans-73"/>
      <use x="29.492188" xlink:href="#DejaVuSans-78"/>
      <use x="104.296875" xlink:href="#DejaVuSans-66"/>
      <use x="172.900391" xlink:href="#DejaVuSans-73"/>
      <use x="202.392578" xlink:href="#DejaVuSans-79"/>
     </g>
    </g>
    <g id="patch_68">
     <path d="M 1024.129688 390.801563 
L 1044.129688 390.801563 
L 1044.129688 383.801563 
L 1024.129688 383.801563 
z
" style="fill:#4a235a;"/>
    </g>
    <g id="text_67">
     <!-- CPCS -->
     <g transform="translate(1052.129688 390.801563)scale(0.1 -0.1)">
      <use xlink:href="#DejaVuSans-67"/>
      <use x="69.824219" xlink:href="#DejaVuSans-80"/>
      <use x="130.126953" xlink:href="#DejaVuSans-67"/>
      <use x="199.951172" xlink:href="#DejaVuSans-83"/>
     </g>
    </g>
    <g id="patch_69">
     <path d="M 1024.129688 405.479688 
L 1044.129688 405.479688 
L 1044.129688 398.479688 
L 1024.129688 398.479688 
z
" style="fill:#f39c12;"/>
    </g>
    <g id="text_68">
     <!-- FAED -->
     <g transform="translate(1052.129688 405.479688)scale(0.1 -0.1)">
      <use xlink:href="#DejaVuSans-70"/>
      <use x="57.378906" xlink:href="#DejaVuSans-65"/>
      <use x="125.787109" xlink:href="#DejaVuSans-69"/>
      <use x="188.970703" xlink:href="#DejaVuSans-68"/>
     </g>
    </g>
    <g id="patch_70">
     <path d="M 1024.129688 420.157813 
L 1044.129688 420.157813 
L 1044.129688 413.157813 
L 1024.129688 413.157813 
z
" style="fill:#008000;"/>
    </g>
    <g id="text_69">
     <!-- FACH -->
     <g transform="translate(1052.129688 420.157813)scale(0.1 -0.1)">
      <use xlink:href="#DejaVuSans-70"/>
      <use x="57.378906" xlink:href="#DejaVuSans-65"/>
      <use x="125.771484" xlink:href="#DejaVuSans-67"/>
      <use x="195.595703" xlink:href="#DejaVuSans-72"/>
     </g>
    </g>
    <g id="patch_71">
     <path d="M 1024.129688 434.835938 
L 1044.129688 434.835938 
L 1044.129688 427.835938 
L 1024.129688 427.835938 
z
" style="fill:#ff69b4;"/>
    </g>
    <g id="text_70">
     <!-- INQUI -->
     <g transform="translate(1052.129688 434.835938)scale(0.1 -0.1)">
      <use xlink:href="#DejaVuSans-73"/>
      <use x="29.492188" xlink:href="#DejaVuSans-78"/>
      <use x="104.296875" xlink:href="#DejaVuSans-81"/>
      <use x="183.007812" xlink:href="#DejaVuSans-85"/>
      <use x="256.201172" xlink:href="#DejaVuSans-73"/>
     </g>
    </g>
    <g id="patch_72">
     <path d="M 1024.129688 449.514063 
L 1044.129688 449.514063 
L 1044.129688 442.514063 
L 1024.129688 442.514063 
z
" style="fill:#800000;"/>
    </g>
    <g id="text_71">
     <!-- FACOM -->
     <g transform="translate(1052.129688 449.514063)scale(0.1 -0.1)">
      <use xlink:href="#DejaVuSans-70"/>
      <use x="57.378906" xlink:href="#DejaVuSans-65"/>
      <use x="125.771484" xlink:href="#DejaVuSans-67"/>
      <use x="195.595703" xlink:href="#DejaVuSans-79"/>
      <use x="274.306641" xlink:href="#DejaVuSans-77"/>
     </g>
    </g>
    <g id="patch_73">
     <path d="M 1024.129688 464.192188 
L 1044.129688 464.192188 
L 1044.129688 457.192188 
L 1024.129688 457.192188 
z
" style="fill:#ffff00;"/>
    </g>
    <g id="text_72">
     <!-- CPAR -->
     <g transform="translate(1052.129688 464.192188)scale(0.1 -0.1)">
      <use xlink:href="#DejaVuSans-67"/>
      <use x="69.824219" xlink:href="#DejaVuSans-80"/>
      <use x="130.033203" xlink:href="#DejaVuSans-65"/>
      <use x="198.441406" xlink:href="#DejaVuSans-82"/>
     </g>
    </g>
    <g id="patch_74">
     <path d="M 1024.129688 478.870313 
L 1044.129688 478.870313 
L 1044.129688 471.870313 
L 1024.129688 471.870313 
z
" style="fill:#00ff00;"/>
    </g>
    <g id="text_73">
     <!-- FAMED -->
     <g transform="translate(1052.129688 478.870313)scale(0.1 -0.1)">
      <use xlink:href="#DejaVuSans-70"/>
      <use x="57.378906" xlink:href="#DejaVuSans-65"/>
      <use x="125.787109" xlink:href="#DejaVuSans-77"/>
      <use x="212.066406" xlink:href="#DejaVuSans-69"/>
      <use x="275.25" xlink:href="#DejaVuSans-68"/>
     </g>
    </g>
    <g id="patch_75">
     <path d="M 1024.129688 493.548438 
L 1044.129688 493.548438 
L 1044.129688 486.548438 
L 1024.129688 486.548438 
z
" style="fill:#ff00ff;"/>
    </g>
    <g id="text_74">
     <!-- CPCX -->
     <g transform="translate(1052.129688 493.548438)scale(0.1 -0.1)">
      <use xlink:href="#DejaVuSans-67"/>
      <use x="69.824219" xlink:href="#DejaVuSans-80"/>
      <use x="130.126953" xlink:href="#DejaVuSans-67"/>
      <use x="199.951172" xlink:href="#DejaVuSans-88"/>
     </g>
    </g>
    <g id="patch_76">
     <path d="M 1024.129688 508.226563 
L 1044.129688 508.226563 
L 1044.129688 501.226563 
L 1024.129688 501.226563 
z
" style="fill:#0000ff;"/>
    </g>
    <g id="text_75">
     <!-- CPPP -->
     <g transform="translate(1052.129688 508.226563)scale(0.1 -0.1)">
      <use xlink:href="#DejaVuSans-67"/>
      <use x="69.824219" xlink:href="#DejaVuSans-80"/>
      <use x="130.126953" xlink:href="#DejaVuSans-80"/>
      <use x="190.429688" xlink:href="#DejaVuSans-80"/>
     </g>
    </g>
    <g id="patch_77">
     <path d="M 1024.129688 522.904688 
L 1044.129688 522.904688 
L 1044.129688 515.904688 
L 1024.129688 515.904688 
z
" style="fill:#ff9999;"/>
    </g>
    <g id="text_76">
     <!-- FAODO -->
     <g transform="translate(1052.129688 522.904688)scale(0.1 -0.1)">
      <use xlink:href="#DejaVuSans-70"/>
      <use x="57.378906" xlink:href="#DejaVuSans-65"/>
      <use x="125.771484" xlink:href="#DejaVuSans-79"/>
      <use x="204.482422" xlink:href="#DejaVuSans-68"/>
      <use x="281.484375" xlink:href="#DejaVuSans-79"/>
     </g>
    </g>
    <g id="patch_78">
     <path d="M 1024.129688 537.582813 
L 1044.129688 537.582813 
L 1044.129688 530.582813 
L 1024.129688 530.582813 
z
" style="fill:#ff0000;"/>
    </g>
    <g id="text_77">
     <!-- FADIR -->
     <g transform="translate(1052.129688 537.582813)scale(0.1 -0.1)">
      <use xlink:href="#DejaVuSans-70"/>
      <use x="57.378906" xlink:href="#DejaVuSans-65"/>
      <use x="125.787109" xlink:href="#DejaVuSans-68"/>
      <use x="202.789062" xlink:href="#DejaVuSans-73"/>
      <use x="232.28125" xlink:href="#DejaVuSans-82"/>
     </g>
    </g>
    <g id="patch_79">
     <path d="M 1024.129688 552.260938 
L 1044.129688 552.260938 
L 1044.129688 545.260938 
L 1024.129688 545.260938 
z
" style="fill:#800080;"/>
    </g>
    <g id="text_78">
     <!-- ESAN -->
     <g transform="translate(1052.129688 552.260938)scale(0.1 -0.1)">
      <use xlink:href="#DejaVuSans-69"/>
      <use x="63.183594" xlink:href="#DejaVuSans-83"/>
      <use x="126.675781" xlink:href="#DejaVuSans-65"/>
      <use x="195.083984" xlink:href="#DejaVuSans-78"/>
     </g>
    </g>
    <g id="patch_80">
     <path d="M 1024.129688 566.939063 
L 1044.129688 566.939063 
L 1044.129688 559.939063 
L 1024.129688 559.939063 
z
" style="fill:#cd5c5c;"/>
    </g>
    <g id="text_79">
     <!-- CPNV -->
     <g transform="translate(1052.129688 566.939063)scale(0.1 -0.1)">
      <use xlink:href="#DejaVuSans-67"/>
      <use x="69.824219" xlink:href="#DejaVuSans-80"/>
      <use x="130.126953" xlink:href="#DejaVuSans-78"/>
      <use x="204.931641" xlink:href="#DejaVuSans-86"/>
     </g>
    </g>
    <g id="patch_81">
     <path d="M 1024.129688 581.617188 
L 1044.129688 581.617188 
L 1044.129688 574.617188 
L 1024.129688 574.617188 
z
" style="fill:#e59866;"/>
    </g>
    <g id="text_80">
     <!-- INFI -->
     <g transform="translate(1052.129688 581.617188)scale(0.1 -0.1)">
      <use xlink:href="#DejaVuSans-73"/>
      <use x="29.492188" xlink:href="#DejaVuSans-78"/>
      <use x="104.296875" xlink:href="#DejaVuSans-70"/>
      <use x="161.816406" xlink:href="#DejaVuSans-73"/>
     </g>
    </g>
    <g id="patch_82">
     <path d="M 1024.129688 596.295313 
L 1044.129688 596.295313 
L 1044.129688 589.295313 
L 1024.129688 589.295313 
z
" style="fill:#1f618d;"/>
    </g>
    <g id="text_81">
     <!-- INMA -->
     <g transform="translate(1052.129688 596.295313)scale(0.1 -0.1)">
      <use xlink:href="#DejaVuSans-73"/>
      <use x="29.492188" xlink:href="#DejaVuSans-78"/>
      <use x="104.296875" xlink:href="#DejaVuSans-77"/>
      <use x="190.576172" xlink:href="#DejaVuSans-65"/>
     </g>
    </g>
    <g id="patch_83">
     <path d="M 1024.129688 610.973438 
L 1044.129688 610.973438 
L 1044.129688 603.973438 
L 1024.129688 603.973438 
z
" style="fill:#6e2c00;"/>
    </g>
    <g id="text_82">
     <!-- CPNA -->
     <g transform="translate(1052.129688 610.973438)scale(0.1 -0.1)">
      <use xlink:href="#DejaVuSans-67"/>
      <use x="69.824219" xlink:href="#DejaVuSans-80"/>
      <use x="130.126953" xlink:href="#DejaVuSans-78"/>
      <use x="204.931641" xlink:href="#DejaVuSans-65"/>
     </g>
    </g>
    <g id="patch_84">
     <path d="M 1024.129688 625.651563 
L 1044.129688 625.651563 
L 1044.129688 618.651563 
L 1024.129688 618.651563 
z
" style="fill:#17202a;"/>
    </g>
    <g id="text_83">
     <!-- PROECE -->
     <g transform="translate(1052.129688 625.651563)scale(0.1 -0.1)">
      <use xlink:href="#DejaVuSans-80"/>
      <use x="60.302734" xlink:href="#DejaVuSans-82"/>
      <use x="129.785156" xlink:href="#DejaVuSans-79"/>
      <use x="208.496094" xlink:href="#DejaVuSans-69"/>
      <use x="271.679688" xlink:href="#DejaVuSans-67"/>
      <use x="341.503906" xlink:href="#DejaVuSans-69"/>
     </g>
    </g>
    <g id="patch_85">
     <path d="M 1024.129688 640.329688 
L 1044.129688 640.329688 
L 1044.129688 633.329688 
L 1024.129688 633.329688 
z
" style="fill:#85c1e9;"/>
    </g>
    <g id="text_84">
     <!-- FAAC -->
     <g transform="translate(1052.129688 640.329688)scale(0.1 -0.1)">
      <use xlink:href="#DejaVuSans-70"/>
      <use x="57.378906" xlink:href="#DejaVuSans-65"/>
      <use x="125.818359" xlink:href="#DejaVuSans-65"/>
      <use x="194.210938" xlink:href="#DejaVuSans-199"/>
      <use x="264.035156" xlink:href="#DejaVuSans-67"/>
     </g>
    </g>
    <g id="patch_86">
     <path d="M 1024.129688 655.007813 
L 1044.129688 655.007813 
L 1044.129688 648.007813 
L 1024.129688 648.007813 
z
" style="fill:#f1948a;"/>
    </g>
    <g id="text_85">
     <!-- NHU -->
     <g transform="translate(1052.129688 655.007813)scale(0.1 -0.1)">
      <use xlink:href="#DejaVuSans-78"/>
      <use x="74.804688" xlink:href="#DejaVuSans-72"/>
      <use x="150" xlink:href="#DejaVuSans-85"/>
     </g>
    </g>
   </g>
  </g>
 </g>
</svg>
